<mxfile host="app.diagrams.net" modified="2023-07-14T23:57:50.108Z" agent="Mozilla/5.0 (Windows NT 10.0; Win64; x64) AppleWebKit/537.36 (KHTML, like Gecko) Chrome/114.0.0.0 Safari/537.36" etag="fCfmUWl9rJesJfgIP9jz" version="21.3.7" type="device" pages="13">
  <diagram id="jLNwFJ-DTcKx9sSIiEJo" name="Pipes">
    <mxGraphModel dx="2442" dy="832" grid="1" gridSize="10" guides="1" tooltips="1" connect="1" arrows="1" fold="1" page="1" pageScale="1" pageWidth="827" pageHeight="1169" math="0" shadow="0">
      <root>
        <mxCell id="0" />
        <mxCell id="1" parent="0" />
        <mxCell id="nEJXx9vV5F2j3CM3eSjp-3" value="Musician" style="rounded=1;whiteSpace=wrap;html=1;points=[[0,0,0,0,0],[0,0.25,0,0,0],[0,0.5,0,0,0],[0,0.75,0,0,0],[0.15,1,0,0,0],[0.25,0,0,0,0],[0.25,1,0,0,0],[0.35,1,0,0,0],[0.45,1,0,0,0],[0.5,0,0,0,0],[0.55,1,0,0,0],[0.65,1,0,0,0],[0.75,0,0,0,0],[0.75,1,0,0,0],[0.85,1,0,0,0],[1,0.15,0,0,0],[1,0.25,0,0,0],[1,0.35,0,0,0],[1,0.45,0,0,0],[1,0.55,0,0,0],[1,0.65,0,0,0],[1,0.75,0,0,0],[1,0.85,0,0,0]];fontSize=17;" parent="1" vertex="1">
          <mxGeometry x="210" y="267" width="180" height="170" as="geometry" />
        </mxCell>
        <mxCell id="gKsQk1TKI1wgfMkSG7GC-2" style="edgeStyle=orthogonalEdgeStyle;rounded=0;orthogonalLoop=1;jettySize=auto;html=1;exitX=1;exitY=0.5;exitDx=0;exitDy=0;strokeColor=none;" parent="1" source="gKsQk1TKI1wgfMkSG7GC-1" edge="1">
          <mxGeometry relative="1" as="geometry">
            <mxPoint x="320" y="422" as="targetPoint" />
          </mxGeometry>
        </mxCell>
        <mxCell id="gKsQk1TKI1wgfMkSG7GC-4" value="Comunication Center" style="rounded=1;whiteSpace=wrap;html=1;points=[[0,0,0,0,0],[0,0.25,0,0,0],[0,0.5,0,0,0],[0,0.75,0,0,0],[0,1,0,0,0],[0.25,0,0,0,0],[0.25,1,0,0,0],[0.5,0,0,0,0],[0.5,1,0,0,0],[0.75,0,0,0,0],[0.75,1,0,0,0],[1,0,0,0,0],[1,0.11,0,0,0],[1,0.24,0,0,0],[1,0.37,0,0,0],[1,0.5,0,0,0],[1,0.63,0,0,0],[1,0.76,0,0,0],[1,0.89,0,0,0],[1,1,0,0,0]];fontSize=17;" parent="1" vertex="1">
          <mxGeometry x="178" y="497" width="120" height="150" as="geometry" />
        </mxCell>
        <mxCell id="gKsQk1TKI1wgfMkSG7GC-5" value="Memory" style="rounded=1;whiteSpace=wrap;html=1;fontSize=17;" parent="1" vertex="1">
          <mxGeometry x="240" y="127" width="120" height="60" as="geometry" />
        </mxCell>
        <mxCell id="gKsQk1TKI1wgfMkSG7GC-6" value="X Driver" style="rounded=1;whiteSpace=wrap;html=1;fontSize=17;" parent="1" vertex="1">
          <mxGeometry x="510" y="67" width="120" height="60" as="geometry" />
        </mxCell>
        <mxCell id="gKsQk1TKI1wgfMkSG7GC-7" value="Z Driver" style="rounded=1;whiteSpace=wrap;html=1;fontSize=17;" parent="1" vertex="1">
          <mxGeometry x="510" y="152" width="120" height="60" as="geometry" />
        </mxCell>
        <mxCell id="gKsQk1TKI1wgfMkSG7GC-8" value="Alpha Driver" style="rounded=1;whiteSpace=wrap;html=1;fontSize=17;" parent="1" vertex="1">
          <mxGeometry x="510" y="247" width="120" height="60" as="geometry" />
        </mxCell>
        <mxCell id="gKsQk1TKI1wgfMkSG7GC-9" value="Flow Controller" style="rounded=1;whiteSpace=wrap;html=1;fontSize=17;" parent="1" vertex="1">
          <mxGeometry x="510" y="467" width="120" height="60" as="geometry" />
        </mxCell>
        <mxCell id="gKsQk1TKI1wgfMkSG7GC-10" value="Pressure Sensor" style="rounded=1;whiteSpace=wrap;html=1;fontSize=17;" parent="1" vertex="1">
          <mxGeometry x="510" y="547" width="120" height="60" as="geometry" />
        </mxCell>
        <mxCell id="gKsQk1TKI1wgfMkSG7GC-11" value="Finger Driver" style="rounded=1;whiteSpace=wrap;html=1;fontSize=17;" parent="1" vertex="1">
          <mxGeometry x="510" y="617" width="120" height="60" as="geometry" />
        </mxCell>
        <object label="Microphone" id="gKsQk1TKI1wgfMkSG7GC-12">
          <mxCell style="rounded=1;whiteSpace=wrap;html=1;fontSize=17;" parent="1" vertex="1">
            <mxGeometry x="510" y="687" width="120" height="60" as="geometry" />
          </mxCell>
        </object>
        <mxCell id="gKsQk1TKI1wgfMkSG7GC-23" value="X Virtual axis" style="rounded=1;whiteSpace=wrap;html=1;fontSize=17;" parent="1" vertex="1">
          <mxGeometry x="660" y="67" width="120" height="60" as="geometry" />
        </mxCell>
        <mxCell id="gKsQk1TKI1wgfMkSG7GC-25" value="X Virtual axis" style="rounded=1;whiteSpace=wrap;html=1;fontSize=17;" parent="1" vertex="1">
          <mxGeometry x="660" y="152" width="120" height="60" as="geometry" />
        </mxCell>
        <mxCell id="gKsQk1TKI1wgfMkSG7GC-27" value="Alpha Virtual axis" style="rounded=1;whiteSpace=wrap;html=1;fontSize=17;" parent="1" vertex="1">
          <mxGeometry x="660" y="247" width="120" height="60" as="geometry" />
        </mxCell>
        <mxCell id="gKsQk1TKI1wgfMkSG7GC-29" value="X Virtual axis" style="rounded=1;whiteSpace=wrap;html=1;fontSize=17;" parent="1" vertex="1">
          <mxGeometry x="660" y="467" width="120" height="60" as="geometry" />
        </mxCell>
        <mxCell id="gKsQk1TKI1wgfMkSG7GC-51" value="Shared Data&lt;br&gt;(Server)" style="shape=cylinder3;whiteSpace=wrap;html=1;boundedLbl=1;backgroundOutline=1;size=15;fontSize=17;" parent="1" vertex="1">
          <mxGeometry x="43" y="10" width="120" height="153" as="geometry" />
        </mxCell>
        <mxCell id="0eerTbSF284dEvrT7S7V-2" style="edgeStyle=orthogonalEdgeStyle;rounded=0;orthogonalLoop=1;jettySize=auto;html=1;entryX=0.5;entryY=1;entryDx=0;entryDy=0;exitX=0.5;exitY=0;exitDx=0;exitDy=-8;exitPerimeter=0;" parent="1" source="0eerTbSF284dEvrT7S7V-1" target="gKsQk1TKI1wgfMkSG7GC-1" edge="1">
          <mxGeometry relative="1" as="geometry">
            <mxPoint x="120" y="490" as="sourcePoint" />
          </mxGeometry>
        </mxCell>
        <mxCell id="0eerTbSF284dEvrT7S7V-1" value="User" style="shape=umlActor;verticalLabelPosition=bottom;verticalAlign=top;html=1;outlineConnect=0;points=[[0,0.3333333333333333,0,0,0],[0,1,0,0,0],[0.25,0.1,0,0,0],[0.5,0,0,0,-8],[0.5,0.5,0,0,0],[0.75,0.1,0,0,0],[1,0.3333333333333333,0,0,0],[1,1,0,0,0]];fontSize=17;" parent="1" vertex="1">
          <mxGeometry x="67" y="510" width="25" height="60" as="geometry" />
        </mxCell>
        <mxCell id="kgCNYqJme5buSbpG6Xps-93" value="" style="group" vertex="1" connectable="0" parent="1">
          <mxGeometry x="20" y="200" width="120" height="224.5" as="geometry" />
        </mxCell>
        <mxCell id="nEJXx9vV5F2j3CM3eSjp-2" value="StartUp Window" style="rounded=1;whiteSpace=wrap;html=1;fontSize=17;" parent="kgCNYqJme5buSbpG6Xps-93" vertex="1">
          <mxGeometry y="79.5" width="120" height="60" as="geometry" />
        </mxCell>
        <mxCell id="gKsQk1TKI1wgfMkSG7GC-1" value="Main Window" style="rounded=1;whiteSpace=wrap;html=1;fontSize=17;" parent="kgCNYqJme5buSbpG6Xps-93" vertex="1">
          <mxGeometry y="164.5" width="120" height="60" as="geometry" />
        </mxCell>
        <mxCell id="2hZqToLP3hvK8JZu4ScQ-1" value="Start" style="ellipse;whiteSpace=wrap;html=1;aspect=fixed;fontSize=17;" parent="kgCNYqJme5buSbpG6Xps-93" vertex="1">
          <mxGeometry x="34" width="52" height="52" as="geometry" />
        </mxCell>
        <mxCell id="Hkvi2Ni4UZ5g5JvvkVYs-92" value="" style="endArrow=classic;html=1;rounded=0;entryX=0.5;entryY=0;entryDx=0;entryDy=0;exitX=0.5;exitY=1;exitDx=0;exitDy=0;" parent="kgCNYqJme5buSbpG6Xps-93" source="nEJXx9vV5F2j3CM3eSjp-2" target="gKsQk1TKI1wgfMkSG7GC-1" edge="1">
          <mxGeometry width="50" height="50" relative="1" as="geometry">
            <mxPoint x="-160" y="360" as="sourcePoint" />
            <mxPoint x="-110" y="310" as="targetPoint" />
          </mxGeometry>
        </mxCell>
        <mxCell id="2hZqToLP3hvK8JZu4ScQ-2" style="edgeStyle=orthogonalEdgeStyle;rounded=0;orthogonalLoop=1;jettySize=auto;html=1;exitX=0.5;exitY=1;exitDx=0;exitDy=0;entryX=0.5;entryY=0;entryDx=0;entryDy=0;" parent="kgCNYqJme5buSbpG6Xps-93" source="2hZqToLP3hvK8JZu4ScQ-1" target="nEJXx9vV5F2j3CM3eSjp-2" edge="1">
          <mxGeometry relative="1" as="geometry" />
        </mxCell>
        <object label="Pipes" id="Pipes">
          <mxCell parent="0" visible="0" />
        </object>
        <mxCell id="Hkvi2Ni4UZ5g5JvvkVYs-69" value="" style="shape=flexArrow;endArrow=none;startArrow=none;html=1;rounded=1;exitX=0;exitY=0.25;exitDx=0;exitDy=0;strokeWidth=1;startFill=0;endFill=0;edgeStyle=elbowEdgeStyle;targetPerimeterSpacing=0;dashed=1;dashPattern=1 1;shadow=0;fillColor=#f5f5f5;strokeColor=#666666;" parent="Pipes" edge="1">
          <mxGeometry width="100" height="100" relative="1" as="geometry">
            <mxPoint x="210" y="310" as="sourcePoint" />
            <mxPoint x="140" y="310" as="targetPoint" />
          </mxGeometry>
        </mxCell>
        <mxCell id="Hkvi2Ni4UZ5g5JvvkVYs-70" style="edgeStyle=orthogonalEdgeStyle;rounded=1;orthogonalLoop=1;jettySize=auto;html=1;exitX=1;exitY=0.5;exitDx=0;exitDy=0;entryX=0;entryY=0.75;entryDx=0;entryDy=0;shape=flexArrow;endArrow=none;endFill=0;dashed=1;dashPattern=1 1;fillColor=#f5f5f5;strokeColor=#666666;" parent="Pipes" edge="1">
          <mxGeometry relative="1" as="geometry">
            <mxPoint x="140" y="395" as="sourcePoint" />
            <mxPoint x="210" y="395" as="targetPoint" />
          </mxGeometry>
        </mxCell>
        <mxCell id="Hkvi2Ni4UZ5g5JvvkVYs-71" style="edgeStyle=orthogonalEdgeStyle;rounded=1;orthogonalLoop=1;jettySize=auto;html=1;exitX=1;exitY=0.11;exitDx=0;exitDy=0;exitPerimeter=0;entryX=0;entryY=0.75;entryDx=0;entryDy=0;shape=flexArrow;endArrow=none;endFill=0;dashed=1;dashPattern=1 1;fillColor=#dae8fc;strokeColor=#6c8ebf;" parent="Pipes" edge="1">
          <mxGeometry relative="1" as="geometry">
            <mxPoint x="298" y="514" as="sourcePoint" />
            <mxPoint x="510" y="112" as="targetPoint" />
            <Array as="points">
              <mxPoint x="430" y="513" />
              <mxPoint x="430" y="112" />
            </Array>
          </mxGeometry>
        </mxCell>
        <mxCell id="Hkvi2Ni4UZ5g5JvvkVYs-72" style="edgeStyle=orthogonalEdgeStyle;rounded=1;orthogonalLoop=1;jettySize=auto;html=1;exitX=1;exitY=0.24;exitDx=0;exitDy=0;exitPerimeter=0;entryX=0;entryY=0.75;entryDx=0;entryDy=0;shape=flexArrow;endArrow=none;endFill=0;dashed=1;dashPattern=1 1;fillColor=#dae8fc;strokeColor=#6c8ebf;" parent="Pipes" edge="1">
          <mxGeometry relative="1" as="geometry">
            <mxPoint x="298" y="533" as="sourcePoint" />
            <mxPoint x="510" y="197" as="targetPoint" />
            <Array as="points">
              <mxPoint x="450" y="533" />
              <mxPoint x="450" y="197" />
            </Array>
          </mxGeometry>
        </mxCell>
        <mxCell id="Hkvi2Ni4UZ5g5JvvkVYs-73" style="edgeStyle=orthogonalEdgeStyle;rounded=1;orthogonalLoop=1;jettySize=auto;html=1;exitX=1;exitY=0.37;exitDx=0;exitDy=0;exitPerimeter=0;entryX=0;entryY=0.75;entryDx=0;entryDy=0;shape=flexArrow;endArrow=none;endFill=0;dashed=1;dashPattern=1 1;fillColor=#dae8fc;strokeColor=#6c8ebf;" parent="Pipes" edge="1">
          <mxGeometry relative="1" as="geometry">
            <mxPoint x="298" y="553" as="sourcePoint" />
            <mxPoint x="510" y="292" as="targetPoint" />
            <Array as="points">
              <mxPoint x="470" y="553" />
              <mxPoint x="470" y="292" />
            </Array>
          </mxGeometry>
        </mxCell>
        <mxCell id="Hkvi2Ni4UZ5g5JvvkVYs-74" style="edgeStyle=orthogonalEdgeStyle;rounded=1;orthogonalLoop=1;jettySize=auto;html=1;exitX=1;exitY=0.5;exitDx=0;exitDy=0;exitPerimeter=0;entryX=0;entryY=0.75;entryDx=0;entryDy=0;shape=flexArrow;endArrow=none;endFill=0;dashed=1;dashPattern=1 1;fillColor=#dae8fc;strokeColor=#6c8ebf;" parent="Pipes" edge="1">
          <mxGeometry relative="1" as="geometry">
            <mxPoint x="298" y="572" as="sourcePoint" />
            <mxPoint x="510" y="512" as="targetPoint" />
            <Array as="points">
              <mxPoint x="490" y="572" />
              <mxPoint x="490" y="512" />
            </Array>
          </mxGeometry>
        </mxCell>
        <mxCell id="Hkvi2Ni4UZ5g5JvvkVYs-75" style="edgeStyle=orthogonalEdgeStyle;rounded=1;orthogonalLoop=1;jettySize=auto;html=1;exitX=1;exitY=0.63;exitDx=0;exitDy=0;exitPerimeter=0;entryX=0;entryY=0.75;entryDx=0;entryDy=0;shape=flexArrow;endArrow=none;endFill=0;dashed=1;dashPattern=1 1;fillColor=#dae8fc;strokeColor=#6c8ebf;" parent="Pipes" edge="1">
          <mxGeometry relative="1" as="geometry">
            <mxPoint x="298" y="592" as="sourcePoint" />
            <mxPoint x="510" y="592" as="targetPoint" />
          </mxGeometry>
        </mxCell>
        <mxCell id="Hkvi2Ni4UZ5g5JvvkVYs-76" style="edgeStyle=orthogonalEdgeStyle;rounded=1;orthogonalLoop=1;jettySize=auto;html=1;exitX=1;exitY=0.76;exitDx=0;exitDy=0;exitPerimeter=0;entryX=0;entryY=0.75;entryDx=0;entryDy=0;shape=flexArrow;endArrow=none;endFill=0;dashed=1;dashPattern=1 1;fillColor=#dae8fc;strokeColor=#6c8ebf;" parent="Pipes" edge="1">
          <mxGeometry relative="1" as="geometry">
            <mxPoint x="298" y="611" as="sourcePoint" />
            <mxPoint x="510" y="662" as="targetPoint" />
            <Array as="points">
              <mxPoint x="298" y="612" />
              <mxPoint x="490" y="612" />
              <mxPoint x="490" y="662" />
            </Array>
          </mxGeometry>
        </mxCell>
        <mxCell id="Hkvi2Ni4UZ5g5JvvkVYs-77" value="" style="shape=flexArrow;endArrow=none;startArrow=none;html=1;rounded=1;strokeWidth=1;startFill=0;endFill=0;edgeStyle=elbowEdgeStyle;targetPerimeterSpacing=0;dashed=1;dashPattern=1 1;shadow=0;fillColor=#f5f5f5;strokeColor=#666666;exitX=0;exitY=0.5;exitDx=0;exitDy=0;entryX=1;entryY=0.15;entryDx=0;entryDy=0;entryPerimeter=0;" parent="Pipes" edge="1">
          <mxGeometry width="100" height="100" relative="1" as="geometry">
            <mxPoint x="510" y="97" as="sourcePoint" />
            <mxPoint x="390" y="293" as="targetPoint" />
            <Array as="points">
              <mxPoint x="420" y="197" />
            </Array>
          </mxGeometry>
        </mxCell>
        <mxCell id="Hkvi2Ni4UZ5g5JvvkVYs-78" value="" style="shape=flexArrow;endArrow=none;startArrow=none;html=1;rounded=1;strokeWidth=1;startFill=0;endFill=0;edgeStyle=elbowEdgeStyle;targetPerimeterSpacing=0;dashed=1;dashPattern=1 1;shadow=0;fillColor=#f5f5f5;strokeColor=#666666;exitX=0;exitY=0.5;exitDx=0;exitDy=0;entryX=1;entryY=0.35;entryDx=0;entryDy=0;entryPerimeter=0;" parent="Pipes" edge="1">
          <mxGeometry width="100" height="100" relative="1" as="geometry">
            <mxPoint x="510" y="182" as="sourcePoint" />
            <mxPoint x="390" y="327" as="targetPoint" />
            <Array as="points">
              <mxPoint x="460" y="257" />
            </Array>
          </mxGeometry>
        </mxCell>
        <mxCell id="Hkvi2Ni4UZ5g5JvvkVYs-79" value="" style="shape=flexArrow;endArrow=none;startArrow=none;html=1;rounded=1;strokeWidth=1;startFill=0;endFill=0;edgeStyle=orthogonalEdgeStyle;targetPerimeterSpacing=0;dashed=1;dashPattern=1 1;shadow=0;fillColor=#f5f5f5;strokeColor=#666666;exitX=0;exitY=0.5;exitDx=0;exitDy=0;entryX=1;entryY=0.55;entryDx=0;entryDy=0;entryPerimeter=0;" parent="Pipes" edge="1">
          <mxGeometry width="100" height="100" relative="1" as="geometry">
            <mxPoint x="510" y="277" as="sourcePoint" />
            <mxPoint x="390" y="361" as="targetPoint" />
            <Array as="points">
              <mxPoint x="500" y="277" />
              <mxPoint x="500" y="361" />
              <mxPoint x="390" y="361" />
            </Array>
          </mxGeometry>
        </mxCell>
        <mxCell id="Hkvi2Ni4UZ5g5JvvkVYs-80" value="" style="shape=flexArrow;endArrow=none;startArrow=none;html=1;rounded=1;strokeWidth=1;startFill=0;endFill=0;edgeStyle=orthogonalEdgeStyle;targetPerimeterSpacing=0;dashed=1;dashPattern=1 1;shadow=0;fillColor=#f5f5f5;strokeColor=#666666;exitX=0;exitY=0.5;exitDx=0;exitDy=0;entryX=1;entryY=0.85;entryDx=0;entryDy=0;entryPerimeter=0;" parent="Pipes" edge="1">
          <mxGeometry width="100" height="100" relative="1" as="geometry">
            <mxPoint x="510" y="495" as="sourcePoint" />
            <mxPoint x="390" y="410" as="targetPoint" />
            <Array as="points">
              <mxPoint x="410" y="496" />
              <mxPoint x="410" y="410" />
            </Array>
          </mxGeometry>
        </mxCell>
        <mxCell id="Hkvi2Ni4UZ5g5JvvkVYs-81" value="" style="shape=flexArrow;endArrow=none;startArrow=none;html=1;rounded=1;strokeWidth=1;startFill=0;endFill=0;edgeStyle=orthogonalEdgeStyle;targetPerimeterSpacing=0;dashed=1;dashPattern=1 1;shadow=0;fillColor=#f5f5f5;strokeColor=#666666;exitX=0;exitY=0.5;exitDx=0;exitDy=0;entryX=0.85;entryY=1;entryDx=0;entryDy=0;entryPerimeter=0;" parent="Pipes" edge="1">
          <mxGeometry width="100" height="100" relative="1" as="geometry">
            <mxPoint x="510" y="577" as="sourcePoint" />
            <mxPoint x="363" y="437" as="targetPoint" />
          </mxGeometry>
        </mxCell>
        <mxCell id="Hkvi2Ni4UZ5g5JvvkVYs-82" value="" style="shape=flexArrow;endArrow=none;startArrow=none;html=1;rounded=1;strokeWidth=1;startFill=0;endFill=0;edgeStyle=orthogonalEdgeStyle;targetPerimeterSpacing=0;dashed=1;dashPattern=1 1;shadow=0;fillColor=#f5f5f5;strokeColor=#666666;exitX=0;exitY=0.5;exitDx=0;exitDy=0;entryX=0.75;entryY=1;entryDx=0;entryDy=0;entryPerimeter=0;" parent="Pipes" edge="1">
          <mxGeometry width="100" height="100" relative="1" as="geometry">
            <mxPoint x="510" y="647" as="sourcePoint" />
            <mxPoint x="345" y="437" as="targetPoint" />
            <Array as="points">
              <mxPoint x="345" y="647" />
            </Array>
          </mxGeometry>
        </mxCell>
        <mxCell id="Hkvi2Ni4UZ5g5JvvkVYs-83" value="" style="shape=flexArrow;endArrow=none;startArrow=none;html=1;rounded=1;strokeWidth=1;startFill=0;endFill=0;edgeStyle=orthogonalEdgeStyle;targetPerimeterSpacing=0;dashed=1;dashPattern=1 1;shadow=0;fillColor=#f5f5f5;strokeColor=#666666;exitX=0;exitY=0.5;exitDx=0;exitDy=0;entryX=0.65;entryY=1;entryDx=0;entryDy=0;entryPerimeter=0;" parent="Pipes" edge="1">
          <mxGeometry width="100" height="100" relative="1" as="geometry">
            <mxPoint x="510" y="717" as="sourcePoint" />
            <mxPoint x="327" y="437" as="targetPoint" />
          </mxGeometry>
        </mxCell>
        <mxCell id="Hkvi2Ni4UZ5g5JvvkVYs-84" value="" style="shape=flexArrow;endArrow=none;startArrow=none;html=1;rounded=1;strokeWidth=1;startFill=0;endFill=0;edgeStyle=elbowEdgeStyle;targetPerimeterSpacing=0;dashed=1;dashPattern=1 1;shadow=0;fillColor=#f5f5f5;strokeColor=#666666;exitX=0.5;exitY=1;exitDx=0;exitDy=0;entryX=0.5;entryY=0;entryDx=0;entryDy=0;entryPerimeter=0;" parent="Pipes" edge="1">
          <mxGeometry width="100" height="100" relative="1" as="geometry">
            <mxPoint x="300" y="187" as="sourcePoint" />
            <mxPoint x="300" y="267" as="targetPoint" />
            <Array as="points">
              <mxPoint x="300" y="217" />
            </Array>
          </mxGeometry>
        </mxCell>
        <mxCell id="Hkvi2Ni4UZ5g5JvvkVYs-85" value="" style="shape=flexArrow;endArrow=none;startArrow=none;html=1;rounded=1;entryX=0.5;entryY=0;entryDx=0;entryDy=0;strokeWidth=1;startFill=0;endFill=0;edgeStyle=orthogonalEdgeStyle;targetPerimeterSpacing=0;dashed=1;dashPattern=1 1;shadow=0;fillColor=#f5f5f5;strokeColor=#666666;exitX=0.15;exitY=1;exitDx=0;exitDy=0;exitPerimeter=0;" parent="Pipes" edge="1">
          <mxGeometry width="100" height="100" relative="1" as="geometry">
            <mxPoint x="237" y="437" as="sourcePoint" />
            <mxPoint x="238" y="497" as="targetPoint" />
          </mxGeometry>
        </mxCell>
        <mxCell id="Hkvi2Ni4UZ5g5JvvkVYs-86" value="" style="shape=flexArrow;endArrow=none;startArrow=none;html=1;rounded=1;strokeWidth=1;startFill=0;endFill=0;edgeStyle=orthogonalEdgeStyle;targetPerimeterSpacing=0;dashed=1;dashPattern=1 1;shadow=0;fillColor=#f5f5f5;strokeColor=#666666;exitX=0;exitY=0.5;exitDx=0;exitDy=0;entryX=0.999;entryY=0.235;entryDx=0;entryDy=0;entryPerimeter=0;" parent="Pipes" edge="1">
          <mxGeometry width="100" height="100" relative="1" as="geometry">
            <mxPoint x="660" y="97" as="sourcePoint" />
            <mxPoint x="390" y="307" as="targetPoint" />
            <Array as="points">
              <mxPoint x="640" y="97" />
              <mxPoint x="640" y="137" />
              <mxPoint x="440" y="137" />
              <mxPoint x="440" y="307" />
            </Array>
          </mxGeometry>
        </mxCell>
        <mxCell id="Hkvi2Ni4UZ5g5JvvkVYs-87" value="" style="shape=flexArrow;endArrow=none;startArrow=none;html=1;rounded=1;strokeWidth=1;startFill=0;endFill=0;edgeStyle=orthogonalEdgeStyle;targetPerimeterSpacing=0;dashed=1;dashPattern=1 1;shadow=0;fillColor=#f5f5f5;strokeColor=#666666;exitX=0;exitY=0.5;exitDx=0;exitDy=0;entryX=1;entryY=0.45;entryDx=0;entryDy=0;entryPerimeter=0;" parent="Pipes" edge="1">
          <mxGeometry width="100" height="100" relative="1" as="geometry">
            <mxPoint x="660" y="182" as="sourcePoint" />
            <mxPoint x="390" y="344" as="targetPoint" />
            <Array as="points">
              <mxPoint x="640" y="182" />
              <mxPoint x="640" y="222" />
              <mxPoint x="480" y="222" />
              <mxPoint x="480" y="344" />
              <mxPoint x="390" y="344" />
            </Array>
          </mxGeometry>
        </mxCell>
        <mxCell id="Hkvi2Ni4UZ5g5JvvkVYs-88" value="" style="shape=flexArrow;endArrow=none;startArrow=none;html=1;rounded=1;strokeWidth=1;startFill=0;endFill=0;edgeStyle=orthogonalEdgeStyle;targetPerimeterSpacing=0;dashed=1;dashPattern=1 1;shadow=0;fillColor=#f5f5f5;strokeColor=#666666;exitX=0;exitY=0.5;exitDx=0;exitDy=0;entryX=1;entryY=0.65;entryDx=0;entryDy=0;entryPerimeter=0;" parent="Pipes" edge="1">
          <mxGeometry width="100" height="100" relative="1" as="geometry">
            <mxPoint x="660" y="277" as="sourcePoint" />
            <mxPoint x="390" y="378" as="targetPoint" />
            <Array as="points">
              <mxPoint x="640" y="277" />
              <mxPoint x="640" y="378" />
              <mxPoint x="390" y="378" />
            </Array>
          </mxGeometry>
        </mxCell>
        <mxCell id="Hkvi2Ni4UZ5g5JvvkVYs-89" value="" style="shape=flexArrow;endArrow=none;startArrow=none;html=1;rounded=1;strokeWidth=1;startFill=0;endFill=0;edgeStyle=orthogonalEdgeStyle;targetPerimeterSpacing=0;dashed=1;dashPattern=1 1;shadow=0;fillColor=#f5f5f5;strokeColor=#666666;exitX=0;exitY=0.5;exitDx=0;exitDy=0;entryX=1;entryY=0.75;entryDx=0;entryDy=0;entryPerimeter=0;" parent="Pipes" edge="1">
          <mxGeometry width="100" height="100" relative="1" as="geometry">
            <mxPoint x="660" y="497" as="sourcePoint" />
            <mxPoint x="390" y="395" as="targetPoint" />
            <Array as="points">
              <mxPoint x="640" y="497" />
              <mxPoint x="640" y="395" />
              <mxPoint x="390" y="395" />
            </Array>
          </mxGeometry>
        </mxCell>
        <mxCell id="Hkvi2Ni4UZ5g5JvvkVYs-57" value="Leyenda" parent="0" />
        <mxCell id="Hkvi2Ni4UZ5g5JvvkVYs-58" style="edgeStyle=orthogonalEdgeStyle;rounded=0;orthogonalLoop=1;jettySize=auto;html=1;" parent="Hkvi2Ni4UZ5g5JvvkVYs-57" edge="1">
          <mxGeometry relative="1" as="geometry">
            <mxPoint x="100" y="730" as="targetPoint" />
            <mxPoint x="80" y="730" as="sourcePoint" />
          </mxGeometry>
        </mxCell>
        <mxCell id="Hkvi2Ni4UZ5g5JvvkVYs-59" value="" style="rounded=0;whiteSpace=wrap;html=1;dashed=1;fillColor=none;fillStyle=hatch;shadow=0;strokeColor=#FF0000;gradientColor=default;gradientDirection=radial;strokeWidth=2;" parent="Hkvi2Ni4UZ5g5JvvkVYs-57" vertex="1">
          <mxGeometry x="20" y="710" width="40" height="40" as="geometry" />
        </mxCell>
        <mxCell id="Hkvi2Ni4UZ5g5JvvkVYs-60" value="Proceso" style="text;html=1;align=center;verticalAlign=middle;resizable=0;points=[];autosize=1;strokeColor=none;fillColor=none;fontSize=17;" parent="Hkvi2Ni4UZ5g5JvvkVYs-57" vertex="1">
          <mxGeometry x="100" y="715" width="90" height="30" as="geometry" />
        </mxCell>
        <mxCell id="Hkvi2Ni4UZ5g5JvvkVYs-61" value="" style="rounded=1;whiteSpace=wrap;html=1;points=[[0,0,0,0,0],[0,0.25,0,0,0],[0,0.5,0,0,0],[0,0.75,0,0,0],[0,1,0,0,0],[0.25,0,0,0,0],[0.25,1,0,0,0],[0.5,0,0,0,0],[0.5,1,0,0,0],[0.75,0,0,0,0],[0.75,1,0,0,0],[1,0,0,0,0],[1,0.11,0,0,0],[1,0.24,0,0,0],[1,0.37,0,0,0],[1,0.5,0,0,0],[1,0.63,0,0,0],[1,0.76,0,0,0],[1,0.89,0,0,0],[1,1,0,0,0]];fontSize=17;" parent="Hkvi2Ni4UZ5g5JvvkVYs-57" vertex="1">
          <mxGeometry x="20" y="760" width="40" height="40" as="geometry" />
        </mxCell>
        <mxCell id="Hkvi2Ni4UZ5g5JvvkVYs-62" value="" style="shape=flexArrow;endArrow=none;startArrow=none;html=1;rounded=1;strokeWidth=1;startFill=0;endFill=0;edgeStyle=orthogonalEdgeStyle;targetPerimeterSpacing=0;dashed=1;dashPattern=1 1;shadow=0;fillColor=#f5f5f5;strokeColor=#666666;" parent="Hkvi2Ni4UZ5g5JvvkVYs-57" edge="1">
          <mxGeometry width="100" height="100" relative="1" as="geometry">
            <mxPoint x="60" y="845" as="sourcePoint" />
            <mxPoint x="20" y="845" as="targetPoint" />
          </mxGeometry>
        </mxCell>
        <mxCell id="Hkvi2Ni4UZ5g5JvvkVYs-63" style="edgeStyle=orthogonalEdgeStyle;rounded=1;orthogonalLoop=1;jettySize=auto;html=1;shape=flexArrow;endArrow=none;endFill=0;dashed=1;dashPattern=1 1;fillColor=#dae8fc;strokeColor=#6c8ebf;" parent="Hkvi2Ni4UZ5g5JvvkVYs-57" edge="1">
          <mxGeometry relative="1" as="geometry">
            <mxPoint x="20" y="820" as="sourcePoint" />
            <mxPoint x="60" y="820" as="targetPoint" />
            <Array as="points">
              <mxPoint x="40" y="820" />
              <mxPoint x="40" y="820" />
            </Array>
          </mxGeometry>
        </mxCell>
        <mxCell id="Hkvi2Ni4UZ5g5JvvkVYs-64" style="edgeStyle=orthogonalEdgeStyle;rounded=0;orthogonalLoop=1;jettySize=auto;html=1;" parent="Hkvi2Ni4UZ5g5JvvkVYs-57" edge="1">
          <mxGeometry relative="1" as="geometry">
            <mxPoint x="100" y="780" as="targetPoint" />
            <mxPoint x="80" y="780" as="sourcePoint" />
          </mxGeometry>
        </mxCell>
        <mxCell id="Hkvi2Ni4UZ5g5JvvkVYs-65" value="o" style="text;html=1;align=center;verticalAlign=middle;resizable=0;points=[];autosize=1;strokeColor=none;fillColor=none;" parent="Hkvi2Ni4UZ5g5JvvkVYs-57" vertex="1">
          <mxGeometry x="25" y="817" width="30" height="30" as="geometry" />
        </mxCell>
        <mxCell id="Hkvi2Ni4UZ5g5JvvkVYs-66" style="edgeStyle=orthogonalEdgeStyle;rounded=0;orthogonalLoop=1;jettySize=auto;html=1;" parent="Hkvi2Ni4UZ5g5JvvkVYs-57" edge="1">
          <mxGeometry relative="1" as="geometry">
            <mxPoint x="100" y="832" as="targetPoint" />
            <mxPoint x="80" y="832" as="sourcePoint" />
          </mxGeometry>
        </mxCell>
        <mxCell id="Hkvi2Ni4UZ5g5JvvkVYs-67" value="Objeto" style="text;html=1;align=center;verticalAlign=middle;resizable=0;points=[];autosize=1;strokeColor=none;fillColor=none;fontSize=17;" parent="Hkvi2Ni4UZ5g5JvvkVYs-57" vertex="1">
          <mxGeometry x="110" y="765" width="70" height="30" as="geometry" />
        </mxCell>
        <mxCell id="Hkvi2Ni4UZ5g5JvvkVYs-68" value="Pipe" style="text;html=1;align=center;verticalAlign=middle;resizable=0;points=[];autosize=1;strokeColor=none;fillColor=none;fontSize=17;" parent="Hkvi2Ni4UZ5g5JvvkVYs-57" vertex="1">
          <mxGeometry x="115" y="817" width="60" height="30" as="geometry" />
        </mxCell>
        <object label="Process" id="Process">
          <mxCell parent="0" />
        </object>
        <UserObject label="" id="kgCNYqJme5buSbpG6Xps-112">
          <mxCell style="rounded=0;whiteSpace=wrap;html=1;dashed=1;fillColor=none;fillStyle=hatch;shadow=0;strokeColor=#FF0000;gradientColor=default;gradientDirection=radial;strokeWidth=2;" vertex="1" parent="Process">
            <mxGeometry x="5" y="190" width="150" height="267" as="geometry" />
          </mxCell>
        </UserObject>
        <UserObject label="" id="gKsQk1TKI1wgfMkSG7GC-40">
          <mxCell style="rounded=0;whiteSpace=wrap;html=1;dashed=1;fillColor=none;fillStyle=hatch;shadow=0;strokeColor=#FF0000;gradientColor=default;gradientDirection=radial;strokeWidth=2;" parent="Process" vertex="1">
            <mxGeometry x="225" y="107" width="150" height="100" as="geometry" />
          </mxCell>
        </UserObject>
        <UserObject label="" id="gKsQk1TKI1wgfMkSG7GC-39">
          <mxCell style="rounded=0;whiteSpace=wrap;html=1;dashed=1;fillColor=none;fillStyle=hatch;shadow=0;strokeColor=#FF0000;gradientColor=default;gradientDirection=radial;strokeWidth=2;" parent="Process" vertex="1">
            <mxGeometry x="198" y="252" width="210" height="200" as="geometry" />
          </mxCell>
        </UserObject>
        <UserObject label="" id="gKsQk1TKI1wgfMkSG7GC-41">
          <mxCell style="rounded=0;whiteSpace=wrap;html=1;dashed=1;fillColor=none;fillStyle=hatch;shadow=0;strokeColor=#FF0000;gradientColor=default;gradientDirection=radial;strokeWidth=2;" parent="Process" vertex="1">
            <mxGeometry x="163" y="472" width="150" height="200" as="geometry" />
          </mxCell>
        </UserObject>
        <UserObject label="" id="gKsQk1TKI1wgfMkSG7GC-45">
          <mxCell style="rounded=0;whiteSpace=wrap;html=1;dashed=1;fillColor=none;fillStyle=hatch;shadow=0;strokeColor=#FF0000;gradientColor=default;gradientDirection=radial;strokeWidth=2;" parent="Process" vertex="1">
            <mxGeometry x="490" y="457" width="310" height="80" as="geometry" />
          </mxCell>
        </UserObject>
        <UserObject label="" id="gKsQk1TKI1wgfMkSG7GC-46">
          <mxCell style="rounded=0;whiteSpace=wrap;html=1;dashed=1;fillColor=none;fillStyle=hatch;shadow=0;strokeColor=#FF0000;gradientColor=default;gradientDirection=radial;strokeWidth=2;" parent="Process" vertex="1">
            <mxGeometry x="490" y="545" width="160" height="63" as="geometry" />
          </mxCell>
        </UserObject>
        <UserObject label="" id="gKsQk1TKI1wgfMkSG7GC-48">
          <mxCell style="rounded=0;whiteSpace=wrap;html=1;dashed=1;fillColor=none;fillStyle=hatch;shadow=0;strokeColor=#FF0000;gradientColor=default;gradientDirection=radial;strokeWidth=2;" parent="Process" vertex="1">
            <mxGeometry x="490" y="615.5" width="160" height="63" as="geometry" />
          </mxCell>
        </UserObject>
        <UserObject label="" id="gKsQk1TKI1wgfMkSG7GC-49">
          <mxCell style="rounded=0;whiteSpace=wrap;html=1;dashed=1;fillColor=none;fillStyle=hatch;shadow=0;strokeColor=#FF0000;gradientColor=default;gradientDirection=radial;strokeWidth=2;" parent="Process" vertex="1">
            <mxGeometry x="490" y="685.5" width="160" height="63" as="geometry" />
          </mxCell>
        </UserObject>
        <UserObject label="" id="gKsQk1TKI1wgfMkSG7GC-44">
          <mxCell style="rounded=0;whiteSpace=wrap;html=1;dashed=1;fillColor=none;fillStyle=hatch;shadow=0;strokeColor=#FF0000;gradientColor=default;gradientDirection=radial;strokeWidth=2;" parent="Process" vertex="1">
            <mxGeometry x="490" y="237" width="310" height="80" as="geometry" />
          </mxCell>
        </UserObject>
        <UserObject label="" id="gKsQk1TKI1wgfMkSG7GC-43">
          <mxCell style="rounded=0;whiteSpace=wrap;html=1;dashed=1;fillColor=none;fillStyle=hatch;shadow=0;strokeColor=#FF0000;gradientColor=default;gradientDirection=radial;strokeWidth=2;" parent="Process" vertex="1">
            <mxGeometry x="490" y="144" width="310" height="80" as="geometry" />
          </mxCell>
        </UserObject>
        <UserObject label="" id="gKsQk1TKI1wgfMkSG7GC-42">
          <mxCell style="rounded=0;whiteSpace=wrap;html=1;dashed=1;fillColor=none;fillStyle=hatch;shadow=0;strokeColor=#FF0000;gradientColor=default;gradientDirection=radial;strokeWidth=2;" parent="Process" vertex="1">
            <mxGeometry x="490" y="57" width="310" height="80" as="geometry" />
          </mxCell>
        </UserObject>
        <object label="Relations" id="Relations">
          <mxCell parent="0" />
        </object>
        <mxCell id="Hkvi2Ni4UZ5g5JvvkVYs-108" style="edgeStyle=orthogonalEdgeStyle;rounded=0;orthogonalLoop=1;jettySize=auto;html=1;exitX=1;exitY=0.5;exitDx=0;exitDy=0;entryX=0;entryY=0.5;entryDx=0;entryDy=0;entryPerimeter=0;" parent="Relations" edge="1">
          <mxGeometry relative="1" as="geometry">
            <mxPoint x="140" y="310" as="sourcePoint" />
            <mxPoint x="210" y="352" as="targetPoint" />
            <Array as="points">
              <mxPoint x="140" y="311" />
              <mxPoint x="180" y="311" />
              <mxPoint x="180" y="352" />
            </Array>
          </mxGeometry>
        </mxCell>
        <mxCell id="Hkvi2Ni4UZ5g5JvvkVYs-109" style="edgeStyle=orthogonalEdgeStyle;rounded=0;orthogonalLoop=1;jettySize=auto;html=1;exitX=0.5;exitY=0;exitDx=0;exitDy=0;exitPerimeter=0;entryX=0.5;entryY=1;entryDx=0;entryDy=0;" parent="Relations" edge="1">
          <mxGeometry relative="1" as="geometry">
            <mxPoint x="300" y="267" as="sourcePoint" />
            <mxPoint x="300" y="187" as="targetPoint" />
          </mxGeometry>
        </mxCell>
        <mxCell id="Hkvi2Ni4UZ5g5JvvkVYs-110" style="edgeStyle=orthogonalEdgeStyle;rounded=0;orthogonalLoop=1;jettySize=auto;html=1;exitX=0.45;exitY=1;exitDx=0;exitDy=0;exitPerimeter=0;entryX=0.5;entryY=0;entryDx=0;entryDy=0;entryPerimeter=0;" parent="Relations" edge="1">
          <mxGeometry relative="1" as="geometry">
            <mxPoint x="291" y="437" as="sourcePoint" />
            <mxPoint x="238" y="497" as="targetPoint" />
          </mxGeometry>
        </mxCell>
        <mxCell id="Hkvi2Ni4UZ5g5JvvkVYs-111" style="edgeStyle=orthogonalEdgeStyle;rounded=0;orthogonalLoop=1;jettySize=auto;html=1;exitX=1;exitY=0.15;exitDx=0;exitDy=0;exitPerimeter=0;entryX=0;entryY=0.5;entryDx=0;entryDy=0;" parent="Relations" edge="1">
          <mxGeometry relative="1" as="geometry">
            <mxPoint x="390" y="293" as="sourcePoint" />
            <mxPoint x="510" y="97" as="targetPoint" />
            <Array as="points">
              <mxPoint x="460" y="293" />
              <mxPoint x="460" y="97" />
            </Array>
          </mxGeometry>
        </mxCell>
        <mxCell id="Hkvi2Ni4UZ5g5JvvkVYs-112" style="edgeStyle=orthogonalEdgeStyle;rounded=0;orthogonalLoop=1;jettySize=auto;html=1;exitX=1;exitY=0.25;exitDx=0;exitDy=0;exitPerimeter=0;entryX=0;entryY=0.5;entryDx=0;entryDy=0;" parent="Relations" edge="1">
          <mxGeometry relative="1" as="geometry">
            <mxPoint x="390" y="310" as="sourcePoint" />
            <mxPoint x="510" y="182" as="targetPoint" />
            <Array as="points">
              <mxPoint x="470" y="309" />
              <mxPoint x="470" y="182" />
            </Array>
          </mxGeometry>
        </mxCell>
        <mxCell id="Hkvi2Ni4UZ5g5JvvkVYs-113" style="edgeStyle=orthogonalEdgeStyle;rounded=0;orthogonalLoop=1;jettySize=auto;html=1;exitX=1;exitY=0.35;exitDx=0;exitDy=0;exitPerimeter=0;entryX=0;entryY=0.5;entryDx=0;entryDy=0;" parent="Relations" edge="1">
          <mxGeometry relative="1" as="geometry">
            <mxPoint x="390" y="327" as="sourcePoint" />
            <mxPoint x="510" y="277" as="targetPoint" />
            <Array as="points">
              <mxPoint x="480" y="327" />
              <mxPoint x="480" y="277" />
            </Array>
          </mxGeometry>
        </mxCell>
        <mxCell id="Hkvi2Ni4UZ5g5JvvkVYs-114" style="edgeStyle=orthogonalEdgeStyle;rounded=0;orthogonalLoop=1;jettySize=auto;html=1;exitX=1;exitY=0.45;exitDx=0;exitDy=0;exitPerimeter=0;entryX=0;entryY=0.5;entryDx=0;entryDy=0;" parent="Relations" edge="1">
          <mxGeometry relative="1" as="geometry">
            <mxPoint x="390" y="344" as="sourcePoint" />
            <mxPoint x="510" y="497" as="targetPoint" />
            <Array as="points">
              <mxPoint x="480" y="343" />
              <mxPoint x="480" y="497" />
            </Array>
          </mxGeometry>
        </mxCell>
        <mxCell id="Hkvi2Ni4UZ5g5JvvkVYs-115" style="edgeStyle=orthogonalEdgeStyle;rounded=0;orthogonalLoop=1;jettySize=auto;html=1;exitX=1;exitY=0.55;exitDx=0;exitDy=0;exitPerimeter=0;entryX=0;entryY=0.5;entryDx=0;entryDy=0;" parent="Relations" edge="1">
          <mxGeometry relative="1" as="geometry">
            <mxPoint x="390" y="360" as="sourcePoint" />
            <mxPoint x="510" y="577" as="targetPoint" />
            <Array as="points">
              <mxPoint x="470" y="361" />
              <mxPoint x="470" y="577" />
            </Array>
          </mxGeometry>
        </mxCell>
        <mxCell id="Hkvi2Ni4UZ5g5JvvkVYs-116" style="edgeStyle=orthogonalEdgeStyle;rounded=0;orthogonalLoop=1;jettySize=auto;html=1;exitX=1;exitY=0.65;exitDx=0;exitDy=0;exitPerimeter=0;entryX=0;entryY=0.5;entryDx=0;entryDy=0;" parent="Relations" edge="1">
          <mxGeometry relative="1" as="geometry">
            <mxPoint x="390" y="378" as="sourcePoint" />
            <mxPoint x="510" y="647" as="targetPoint" />
            <Array as="points">
              <mxPoint x="460" y="377" />
              <mxPoint x="460" y="647" />
            </Array>
          </mxGeometry>
        </mxCell>
        <mxCell id="Hkvi2Ni4UZ5g5JvvkVYs-117" style="edgeStyle=orthogonalEdgeStyle;rounded=0;orthogonalLoop=1;jettySize=auto;html=1;exitX=1;exitY=0.75;exitDx=0;exitDy=0;exitPerimeter=0;entryX=0;entryY=0.5;entryDx=0;entryDy=0;" parent="Relations" edge="1">
          <mxGeometry relative="1" as="geometry">
            <mxPoint x="390" y="395" as="sourcePoint" />
            <mxPoint x="510" y="717" as="targetPoint" />
            <Array as="points">
              <mxPoint x="450" y="396" />
              <mxPoint x="450" y="717" />
            </Array>
          </mxGeometry>
        </mxCell>
        <mxCell id="Hkvi2Ni4UZ5g5JvvkVYs-118" style="edgeStyle=orthogonalEdgeStyle;rounded=0;orthogonalLoop=1;jettySize=auto;html=1;exitX=1;exitY=0.5;exitDx=0;exitDy=0;" parent="Relations" edge="1">
          <mxGeometry relative="1" as="geometry">
            <mxPoint x="140" y="395" as="sourcePoint" />
            <mxPoint x="210" y="352" as="targetPoint" />
            <Array as="points">
              <mxPoint x="180" y="395" />
              <mxPoint x="180" y="352" />
            </Array>
          </mxGeometry>
        </mxCell>
        <mxCell id="Hkvi2Ni4UZ5g5JvvkVYs-119" style="edgeStyle=orthogonalEdgeStyle;rounded=0;orthogonalLoop=1;jettySize=auto;html=1;exitX=1;exitY=0.5;exitDx=0;exitDy=0;entryX=0;entryY=0.5;entryDx=0;entryDy=0;" parent="Relations" edge="1">
          <mxGeometry relative="1" as="geometry">
            <mxPoint x="630" y="97" as="sourcePoint" />
            <mxPoint x="660" y="97" as="targetPoint" />
          </mxGeometry>
        </mxCell>
        <mxCell id="Hkvi2Ni4UZ5g5JvvkVYs-120" style="edgeStyle=orthogonalEdgeStyle;rounded=0;orthogonalLoop=1;jettySize=auto;html=1;exitX=1;exitY=0.5;exitDx=0;exitDy=0;entryX=0;entryY=0.5;entryDx=0;entryDy=0;" parent="Relations" edge="1">
          <mxGeometry relative="1" as="geometry">
            <mxPoint x="630" y="182" as="sourcePoint" />
            <mxPoint x="660" y="182" as="targetPoint" />
          </mxGeometry>
        </mxCell>
        <mxCell id="Hkvi2Ni4UZ5g5JvvkVYs-121" style="edgeStyle=orthogonalEdgeStyle;rounded=0;orthogonalLoop=1;jettySize=auto;html=1;exitX=1;exitY=0.5;exitDx=0;exitDy=0;entryX=0;entryY=0.5;entryDx=0;entryDy=0;" parent="Relations" edge="1">
          <mxGeometry relative="1" as="geometry">
            <mxPoint x="630" y="277" as="sourcePoint" />
            <mxPoint x="660" y="277" as="targetPoint" />
          </mxGeometry>
        </mxCell>
        <mxCell id="Hkvi2Ni4UZ5g5JvvkVYs-122" style="edgeStyle=orthogonalEdgeStyle;rounded=0;orthogonalLoop=1;jettySize=auto;html=1;exitX=1;exitY=0.5;exitDx=0;exitDy=0;entryX=0;entryY=0.5;entryDx=0;entryDy=0;" parent="Relations" edge="1">
          <mxGeometry relative="1" as="geometry">
            <mxPoint x="630" y="497" as="sourcePoint" />
            <mxPoint x="660" y="497" as="targetPoint" />
          </mxGeometry>
        </mxCell>
        <object label="Memory Access" id="Memory">
          <mxCell parent="0" visible="0" />
        </object>
        <mxCell id="Hkvi2Ni4UZ5g5JvvkVYs-135" style="edgeStyle=orthogonalEdgeStyle;rounded=0;orthogonalLoop=1;jettySize=auto;html=1;exitX=0.5;exitY=1;exitDx=0;exitDy=0;exitPerimeter=0;entryX=0;entryY=0.5;entryDx=0;entryDy=0;entryPerimeter=0;startArrow=classic;startFill=1;" parent="Memory" edge="1">
          <mxGeometry relative="1" as="geometry">
            <mxPoint x="238" y="647" as="sourcePoint" />
            <mxPoint x="43" y="87" as="targetPoint" />
            <Array as="points">
              <mxPoint x="238" y="667" />
              <mxPoint x="-40" y="667" />
              <mxPoint x="-40" y="87" />
            </Array>
          </mxGeometry>
        </mxCell>
        <mxCell id="Hkvi2Ni4UZ5g5JvvkVYs-136" style="edgeStyle=orthogonalEdgeStyle;rounded=0;orthogonalLoop=1;jettySize=auto;html=1;exitX=0;exitY=0.5;exitDx=0;exitDy=0;entryX=1;entryY=0;entryDx=0;entryDy=107.25;entryPerimeter=0;" parent="Memory" edge="1">
          <mxGeometry relative="1" as="geometry">
            <mxPoint x="240" y="157" as="sourcePoint" />
            <mxPoint x="163" y="117" as="targetPoint" />
            <Array as="points">
              <mxPoint x="200" y="158" />
              <mxPoint x="200" y="117" />
            </Array>
          </mxGeometry>
        </mxCell>
        <mxCell id="Hkvi2Ni4UZ5g5JvvkVYs-137" style="edgeStyle=orthogonalEdgeStyle;rounded=0;orthogonalLoop=1;jettySize=auto;html=1;exitX=0;exitY=0;exitDx=0;exitDy=107.25;exitPerimeter=0;entryX=0;entryY=0.5;entryDx=0;entryDy=0;" parent="Memory" edge="1">
          <mxGeometry relative="1" as="geometry">
            <mxPoint x="43" y="117" as="sourcePoint" />
            <mxPoint x="20" y="395" as="targetPoint" />
            <Array as="points">
              <mxPoint x="-10" y="117" />
              <mxPoint x="-10" y="395" />
            </Array>
          </mxGeometry>
        </mxCell>
        <mxCell id="Hkvi2Ni4UZ5g5JvvkVYs-138" style="edgeStyle=orthogonalEdgeStyle;rounded=0;orthogonalLoop=1;jettySize=auto;html=1;exitX=1;exitY=0;exitDx=0;exitDy=45.75;exitPerimeter=0;entryX=0;entryY=0.5;entryDx=0;entryDy=0;" parent="Memory" edge="1">
          <mxGeometry relative="1" as="geometry">
            <mxPoint x="163" y="56" as="sourcePoint" />
            <mxPoint x="510" y="97" as="targetPoint" />
            <Array as="points">
              <mxPoint x="440" y="56" />
              <mxPoint x="440" y="97" />
            </Array>
          </mxGeometry>
        </mxCell>
        <mxCell id="Hkvi2Ni4UZ5g5JvvkVYs-139" style="edgeStyle=orthogonalEdgeStyle;rounded=0;orthogonalLoop=1;jettySize=auto;html=1;exitX=1;exitY=0;exitDx=0;exitDy=45.75;exitPerimeter=0;entryX=0;entryY=0.5;entryDx=0;entryDy=0;" parent="Memory" edge="1">
          <mxGeometry relative="1" as="geometry">
            <mxPoint x="163" y="56" as="sourcePoint" />
            <mxPoint x="510" y="182" as="targetPoint" />
            <Array as="points">
              <mxPoint x="440" y="56" />
              <mxPoint x="440" y="182" />
            </Array>
          </mxGeometry>
        </mxCell>
        <mxCell id="Hkvi2Ni4UZ5g5JvvkVYs-140" style="edgeStyle=orthogonalEdgeStyle;rounded=0;orthogonalLoop=1;jettySize=auto;html=1;exitX=1;exitY=0;exitDx=0;exitDy=45.75;exitPerimeter=0;entryX=0;entryY=0.5;entryDx=0;entryDy=0;startArrow=classic;startFill=1;" parent="Memory" edge="1">
          <mxGeometry relative="1" as="geometry">
            <mxPoint x="163" y="56" as="sourcePoint" />
            <mxPoint x="510" y="277" as="targetPoint" />
            <Array as="points">
              <mxPoint x="440" y="56" />
              <mxPoint x="440" y="277" />
            </Array>
          </mxGeometry>
        </mxCell>
        <mxCell id="Hkvi2Ni4UZ5g5JvvkVYs-141" style="edgeStyle=orthogonalEdgeStyle;rounded=0;orthogonalLoop=1;jettySize=auto;html=1;exitX=1;exitY=0;exitDx=0;exitDy=45.75;exitPerimeter=0;entryX=0;entryY=0.5;entryDx=0;entryDy=0;" parent="Memory" edge="1">
          <mxGeometry relative="1" as="geometry">
            <mxPoint x="163" y="56" as="sourcePoint" />
            <mxPoint x="510" y="497" as="targetPoint" />
            <Array as="points">
              <mxPoint x="440" y="56" />
              <mxPoint x="440" y="497" />
            </Array>
          </mxGeometry>
        </mxCell>
        <mxCell id="Hkvi2Ni4UZ5g5JvvkVYs-142" style="edgeStyle=orthogonalEdgeStyle;rounded=0;orthogonalLoop=1;jettySize=auto;html=1;exitX=1;exitY=0;exitDx=0;exitDy=45.75;exitPerimeter=0;entryX=0;entryY=0.5;entryDx=0;entryDy=0;" parent="Memory" edge="1">
          <mxGeometry relative="1" as="geometry">
            <mxPoint x="163" y="56" as="sourcePoint" />
            <mxPoint x="510" y="577" as="targetPoint" />
            <Array as="points">
              <mxPoint x="440" y="56" />
              <mxPoint x="440" y="577" />
            </Array>
          </mxGeometry>
        </mxCell>
        <mxCell id="Hkvi2Ni4UZ5g5JvvkVYs-143" style="edgeStyle=orthogonalEdgeStyle;rounded=0;orthogonalLoop=1;jettySize=auto;html=1;exitX=1;exitY=0;exitDx=0;exitDy=45.75;exitPerimeter=0;entryX=0;entryY=0.5;entryDx=0;entryDy=0;" parent="Memory" edge="1">
          <mxGeometry relative="1" as="geometry">
            <mxPoint x="163" y="56" as="sourcePoint" />
            <mxPoint x="510" y="647" as="targetPoint" />
            <Array as="points">
              <mxPoint x="440" y="56" />
              <mxPoint x="440" y="647" />
            </Array>
          </mxGeometry>
        </mxCell>
        <mxCell id="Hkvi2Ni4UZ5g5JvvkVYs-144" value="Buttons" parent="0" />
        <mxCell id="kgCNYqJme5buSbpG6Xps-26" value="" style="rounded=0;whiteSpace=wrap;html=1;fillStyle=hatch;fillColor=#9AC7BF;strokeColor=none;" vertex="1" parent="Hkvi2Ni4UZ5g5JvvkVYs-144">
          <mxGeometry x="-330" y="110" width="210" height="410" as="geometry" />
        </mxCell>
        <UserObject label="" link="data:action/json,{&quot;actions&quot;:[{&quot;toggle&quot;:{&quot;cells&quot;:[&quot;kgCNYqJme5buSbpG6Xps-24&quot;, &quot;Pipes&quot;]}}]}" id="kgCNYqJme5buSbpG6Xps-27">
          <mxCell style="group" vertex="1" connectable="0" parent="Hkvi2Ni4UZ5g5JvvkVYs-144">
            <mxGeometry x="-310" y="126.95" width="160" height="60" as="geometry" />
          </mxCell>
        </UserObject>
        <UserObject label="" id="kgCNYqJme5buSbpG6Xps-22">
          <mxCell style="rounded=1;whiteSpace=wrap;html=1;" vertex="1" parent="kgCNYqJme5buSbpG6Xps-27">
            <mxGeometry width="160" height="60" as="geometry" />
          </mxCell>
        </UserObject>
        <mxCell id="kgCNYqJme5buSbpG6Xps-16" value="" style="group;strokeWidth=1;" vertex="1" connectable="0" parent="kgCNYqJme5buSbpG6Xps-27">
          <mxGeometry x="92" y="16.94999999999999" width="47.45" height="26.1" as="geometry" />
        </mxCell>
        <mxCell id="kgCNYqJme5buSbpG6Xps-17" value="" style="html=1;verticalLabelPosition=bottom;align=center;labelBackgroundColor=#ffffff;verticalAlign=top;strokeWidth=2;strokeColor=#000000;shadow=0;dashed=0;shape=mxgraph.ios7.icons.eye;" vertex="1" parent="kgCNYqJme5buSbpG6Xps-16">
          <mxGeometry width="47.45" height="24.611652892561985" as="geometry" />
        </mxCell>
        <object label="" id="kgCNYqJme5buSbpG6Xps-24">
          <mxCell style="group" vertex="1" connectable="0" parent="kgCNYqJme5buSbpG6Xps-16" visible="0">
            <mxGeometry x="0.8627272727272728" y="6.130633191186319e-15" width="45.50886363636364" height="26.099999999999994" as="geometry" />
          </mxCell>
        </object>
        <mxCell id="kgCNYqJme5buSbpG6Xps-18" value="" style="endArrow=none;html=1;rounded=0;strokeWidth=7;strokeColor=#FFFFFF;" edge="1" parent="kgCNYqJme5buSbpG6Xps-24">
          <mxGeometry width="50" height="50" relative="1" as="geometry">
            <mxPoint x="45.50886363636364" y="25.88429752066115" as="sourcePoint" />
            <mxPoint x="0.2156818181818183" as="targetPoint" />
          </mxGeometry>
        </mxCell>
        <mxCell id="kgCNYqJme5buSbpG6Xps-19" value="" style="endArrow=none;html=1;rounded=0;strokeWidth=2;" edge="1" parent="kgCNYqJme5buSbpG6Xps-24">
          <mxGeometry width="50" height="50" relative="1" as="geometry">
            <mxPoint x="45.29318181818182" y="26.099999999999994" as="sourcePoint" />
            <mxPoint y="0.21570247933884298" as="targetPoint" />
          </mxGeometry>
        </mxCell>
        <mxCell id="kgCNYqJme5buSbpG6Xps-25" value="Pipes" style="text;html=1;align=center;verticalAlign=middle;resizable=0;points=[];autosize=1;strokeColor=none;fillColor=none;fontSize=17;fontStyle=1" vertex="1" parent="kgCNYqJme5buSbpG6Xps-27">
          <mxGeometry x="10" y="15" width="70" height="30" as="geometry" />
        </mxCell>
        <UserObject label="" link="data:action/json,{&quot;actions&quot;:[{&quot;toggle&quot;:{&quot;cells&quot;:[&quot;kgCNYqJme5buSbpG6Xps-32&quot;,&quot;Relations&quot;]}}]}" id="kgCNYqJme5buSbpG6Xps-28">
          <mxCell style="group" vertex="1" connectable="0" parent="Hkvi2Ni4UZ5g5JvvkVYs-144">
            <mxGeometry x="-307" y="200" width="160" height="60" as="geometry" />
          </mxCell>
        </UserObject>
        <UserObject label="" id="kgCNYqJme5buSbpG6Xps-29">
          <mxCell style="rounded=1;whiteSpace=wrap;html=1;" vertex="1" parent="kgCNYqJme5buSbpG6Xps-28">
            <mxGeometry width="160" height="60" as="geometry" />
          </mxCell>
        </UserObject>
        <mxCell id="kgCNYqJme5buSbpG6Xps-30" value="" style="group;strokeWidth=1;" vertex="1" connectable="0" parent="kgCNYqJme5buSbpG6Xps-28">
          <mxGeometry x="92" y="16.94999999999999" width="47.45" height="26.1" as="geometry" />
        </mxCell>
        <mxCell id="kgCNYqJme5buSbpG6Xps-31" value="" style="html=1;verticalLabelPosition=bottom;align=center;labelBackgroundColor=#ffffff;verticalAlign=top;strokeWidth=2;strokeColor=#000000;shadow=0;dashed=0;shape=mxgraph.ios7.icons.eye;" vertex="1" parent="kgCNYqJme5buSbpG6Xps-30">
          <mxGeometry width="47.45" height="24.611652892561985" as="geometry" />
        </mxCell>
        <object label="" id="kgCNYqJme5buSbpG6Xps-32">
          <mxCell style="group" vertex="1" connectable="0" parent="kgCNYqJme5buSbpG6Xps-30">
            <mxGeometry x="0.8627272727272728" y="6.130633191186319e-15" width="45.50886363636364" height="26.099999999999994" as="geometry" />
          </mxCell>
        </object>
        <mxCell id="kgCNYqJme5buSbpG6Xps-33" value="" style="endArrow=none;html=1;rounded=0;strokeWidth=7;strokeColor=#FFFFFF;" edge="1" parent="kgCNYqJme5buSbpG6Xps-32">
          <mxGeometry width="50" height="50" relative="1" as="geometry">
            <mxPoint x="45.50886363636364" y="25.88429752066115" as="sourcePoint" />
            <mxPoint x="0.2156818181818183" as="targetPoint" />
          </mxGeometry>
        </mxCell>
        <mxCell id="kgCNYqJme5buSbpG6Xps-34" value="" style="endArrow=none;html=1;rounded=0;strokeWidth=2;" edge="1" parent="kgCNYqJme5buSbpG6Xps-32">
          <mxGeometry width="50" height="50" relative="1" as="geometry">
            <mxPoint x="45.29318181818182" y="26.099999999999994" as="sourcePoint" />
            <mxPoint y="0.21570247933884298" as="targetPoint" />
          </mxGeometry>
        </mxCell>
        <mxCell id="kgCNYqJme5buSbpG6Xps-35" value="Relations" style="text;html=1;align=center;verticalAlign=middle;resizable=0;points=[];autosize=1;strokeColor=none;fillColor=none;fontSize=17;fontStyle=1" vertex="1" parent="kgCNYqJme5buSbpG6Xps-28">
          <mxGeometry x="-5" y="15" width="100" height="30" as="geometry" />
        </mxCell>
        <UserObject label="" link="data:action/json,{&quot;actions&quot;:[{&quot;toggle&quot;:{&quot;cells&quot;:[&quot;kgCNYqJme5buSbpG6Xps-64&quot;,&quot;Memory&quot;]}}]}" id="kgCNYqJme5buSbpG6Xps-60">
          <mxCell style="group" vertex="1" connectable="0" parent="Hkvi2Ni4UZ5g5JvvkVYs-144">
            <mxGeometry x="-307" y="280" width="160" height="60" as="geometry" />
          </mxCell>
        </UserObject>
        <UserObject label="" id="kgCNYqJme5buSbpG6Xps-61">
          <mxCell style="rounded=1;whiteSpace=wrap;html=1;" vertex="1" parent="kgCNYqJme5buSbpG6Xps-60">
            <mxGeometry width="160" height="60" as="geometry" />
          </mxCell>
        </UserObject>
        <mxCell id="kgCNYqJme5buSbpG6Xps-62" value="" style="group;strokeWidth=1;" vertex="1" connectable="0" parent="kgCNYqJme5buSbpG6Xps-60">
          <mxGeometry x="92" y="16.94999999999999" width="47.45" height="26.1" as="geometry" />
        </mxCell>
        <mxCell id="kgCNYqJme5buSbpG6Xps-63" value="" style="html=1;verticalLabelPosition=bottom;align=center;labelBackgroundColor=#ffffff;verticalAlign=top;strokeWidth=2;strokeColor=#000000;shadow=0;dashed=0;shape=mxgraph.ios7.icons.eye;" vertex="1" parent="kgCNYqJme5buSbpG6Xps-62">
          <mxGeometry width="47.45" height="24.611652892561985" as="geometry" />
        </mxCell>
        <object label="" id="kgCNYqJme5buSbpG6Xps-64">
          <mxCell style="group" vertex="1" connectable="0" visible="0" parent="kgCNYqJme5buSbpG6Xps-62">
            <mxGeometry x="0.8627272727272728" y="6.130633191186319e-15" width="45.50886363636364" height="26.099999999999994" as="geometry" />
          </mxCell>
        </object>
        <mxCell id="kgCNYqJme5buSbpG6Xps-65" value="" style="endArrow=none;html=1;rounded=0;strokeWidth=7;strokeColor=#FFFFFF;" edge="1" parent="kgCNYqJme5buSbpG6Xps-64">
          <mxGeometry width="50" height="50" relative="1" as="geometry">
            <mxPoint x="45.50886363636364" y="25.88429752066115" as="sourcePoint" />
            <mxPoint x="0.2156818181818183" as="targetPoint" />
          </mxGeometry>
        </mxCell>
        <mxCell id="kgCNYqJme5buSbpG6Xps-66" value="" style="endArrow=none;html=1;rounded=0;strokeWidth=2;" edge="1" parent="kgCNYqJme5buSbpG6Xps-64">
          <mxGeometry width="50" height="50" relative="1" as="geometry">
            <mxPoint x="45.29318181818182" y="26.099999999999994" as="sourcePoint" />
            <mxPoint y="0.21570247933884298" as="targetPoint" />
          </mxGeometry>
        </mxCell>
        <mxCell id="kgCNYqJme5buSbpG6Xps-67" value="Access to &lt;br&gt;memory" style="text;html=1;align=center;verticalAlign=middle;resizable=0;points=[];autosize=1;strokeColor=none;fillColor=none;fontSize=17;fontStyle=1" vertex="1" parent="kgCNYqJme5buSbpG6Xps-60">
          <mxGeometry x="-5" y="5" width="100" height="50" as="geometry" />
        </mxCell>
        <UserObject label="" link="data:action/json,{&quot;actions&quot;:[{&quot;toggle&quot;:{&quot;cells&quot;:[&quot;kgCNYqJme5buSbpG6Xps-80&quot;,&quot;other_data&quot;]}}]}" id="kgCNYqJme5buSbpG6Xps-76">
          <mxCell style="group" vertex="1" connectable="0" parent="Hkvi2Ni4UZ5g5JvvkVYs-144">
            <mxGeometry x="-307" y="360" width="160" height="60" as="geometry" />
          </mxCell>
        </UserObject>
        <UserObject label="" id="kgCNYqJme5buSbpG6Xps-77">
          <mxCell style="rounded=1;whiteSpace=wrap;html=1;" vertex="1" parent="kgCNYqJme5buSbpG6Xps-76">
            <mxGeometry width="160" height="60" as="geometry" />
          </mxCell>
        </UserObject>
        <mxCell id="kgCNYqJme5buSbpG6Xps-78" value="" style="group;strokeWidth=1;" vertex="1" connectable="0" parent="kgCNYqJme5buSbpG6Xps-76">
          <mxGeometry x="92" y="16.94999999999999" width="47.45" height="26.1" as="geometry" />
        </mxCell>
        <mxCell id="kgCNYqJme5buSbpG6Xps-79" value="" style="html=1;verticalLabelPosition=bottom;align=center;labelBackgroundColor=#ffffff;verticalAlign=top;strokeWidth=2;strokeColor=#000000;shadow=0;dashed=0;shape=mxgraph.ios7.icons.eye;" vertex="1" parent="kgCNYqJme5buSbpG6Xps-78">
          <mxGeometry width="47.45" height="24.611652892561985" as="geometry" />
        </mxCell>
        <object label="" id="kgCNYqJme5buSbpG6Xps-80">
          <mxCell style="group" vertex="1" connectable="0" visible="0" parent="kgCNYqJme5buSbpG6Xps-78">
            <mxGeometry x="0.8627272727272728" y="6.130633191186319e-15" width="45.50886363636364" height="26.099999999999994" as="geometry" />
          </mxCell>
        </object>
        <mxCell id="kgCNYqJme5buSbpG6Xps-81" value="" style="endArrow=none;html=1;rounded=0;strokeWidth=7;strokeColor=#FFFFFF;" edge="1" parent="kgCNYqJme5buSbpG6Xps-80">
          <mxGeometry width="50" height="50" relative="1" as="geometry">
            <mxPoint x="45.50886363636364" y="25.88429752066115" as="sourcePoint" />
            <mxPoint x="0.2156818181818183" as="targetPoint" />
          </mxGeometry>
        </mxCell>
        <mxCell id="kgCNYqJme5buSbpG6Xps-82" value="" style="endArrow=none;html=1;rounded=0;strokeWidth=2;" edge="1" parent="kgCNYqJme5buSbpG6Xps-80">
          <mxGeometry width="50" height="50" relative="1" as="geometry">
            <mxPoint x="45.29318181818182" y="26.099999999999994" as="sourcePoint" />
            <mxPoint y="0.21570247933884298" as="targetPoint" />
          </mxGeometry>
        </mxCell>
        <mxCell id="kgCNYqJme5buSbpG6Xps-83" value="Other data&lt;br&gt;transm." style="text;html=1;align=center;verticalAlign=middle;resizable=0;points=[];autosize=1;strokeColor=none;fillColor=none;fontSize=17;fontStyle=1" vertex="1" parent="kgCNYqJme5buSbpG6Xps-76">
          <mxGeometry x="-8" y="5" width="110" height="50" as="geometry" />
        </mxCell>
        <UserObject label="" link="data:action/json,{&quot;actions&quot;:[{&quot;toggle&quot;:{&quot;cells&quot;:[&quot;kgCNYqJme5buSbpG6Xps-88&quot;,&quot;Process&quot;]}}]}" id="kgCNYqJme5buSbpG6Xps-84">
          <mxCell style="group" vertex="1" connectable="0" parent="Hkvi2Ni4UZ5g5JvvkVYs-144">
            <mxGeometry x="-307" y="440" width="160" height="60" as="geometry" />
          </mxCell>
        </UserObject>
        <UserObject label="" id="kgCNYqJme5buSbpG6Xps-85">
          <mxCell style="rounded=1;whiteSpace=wrap;html=1;" vertex="1" parent="kgCNYqJme5buSbpG6Xps-84">
            <mxGeometry width="160" height="60" as="geometry" />
          </mxCell>
        </UserObject>
        <mxCell id="kgCNYqJme5buSbpG6Xps-86" value="" style="group;strokeWidth=1;" vertex="1" connectable="0" parent="kgCNYqJme5buSbpG6Xps-84">
          <mxGeometry x="92" y="16.94999999999999" width="47.45" height="26.1" as="geometry" />
        </mxCell>
        <mxCell id="kgCNYqJme5buSbpG6Xps-87" value="" style="html=1;verticalLabelPosition=bottom;align=center;labelBackgroundColor=#ffffff;verticalAlign=top;strokeWidth=2;strokeColor=#000000;shadow=0;dashed=0;shape=mxgraph.ios7.icons.eye;" vertex="1" parent="kgCNYqJme5buSbpG6Xps-86">
          <mxGeometry width="47.45" height="24.611652892561985" as="geometry" />
        </mxCell>
        <object label="" id="kgCNYqJme5buSbpG6Xps-88">
          <mxCell style="group" vertex="1" connectable="0" parent="kgCNYqJme5buSbpG6Xps-86">
            <mxGeometry x="0.8627272727272728" y="6.130633191186319e-15" width="45.50886363636364" height="26.099999999999994" as="geometry" />
          </mxCell>
        </object>
        <mxCell id="kgCNYqJme5buSbpG6Xps-89" value="" style="endArrow=none;html=1;rounded=0;strokeWidth=7;strokeColor=#FFFFFF;" edge="1" parent="kgCNYqJme5buSbpG6Xps-88">
          <mxGeometry width="50" height="50" relative="1" as="geometry">
            <mxPoint x="45.50886363636364" y="25.88429752066115" as="sourcePoint" />
            <mxPoint x="0.2156818181818183" as="targetPoint" />
          </mxGeometry>
        </mxCell>
        <mxCell id="kgCNYqJme5buSbpG6Xps-90" value="" style="endArrow=none;html=1;rounded=0;strokeWidth=2;" edge="1" parent="kgCNYqJme5buSbpG6Xps-88">
          <mxGeometry width="50" height="50" relative="1" as="geometry">
            <mxPoint x="45.29318181818182" y="26.099999999999994" as="sourcePoint" />
            <mxPoint y="0.21570247933884298" as="targetPoint" />
          </mxGeometry>
        </mxCell>
        <mxCell id="kgCNYqJme5buSbpG6Xps-91" value="Process" style="text;html=1;align=center;verticalAlign=middle;resizable=0;points=[];autosize=1;strokeColor=none;fillColor=none;fontSize=17;fontStyle=1" vertex="1" parent="kgCNYqJme5buSbpG6Xps-84">
          <mxGeometry y="15" width="90" height="30" as="geometry" />
        </mxCell>
        <object label="link_page" id="link_page">
          <mxCell parent="0" />
        </object>
        <UserObject label="" link="data:page/id,GozepwVMCVAPO_nHtGKL" id="kgCNYqJme5buSbpG6Xps-100">
          <mxCell style="rounded=0;whiteSpace=wrap;html=1;fillColor=none;strokeColor=none;" vertex="1" parent="link_page">
            <mxGeometry x="200" y="250" width="210" height="200" as="geometry" />
          </mxCell>
        </UserObject>
        <UserObject label="" link="data:page/id,_viWnQ1H4lERFUP8tuGF" id="kgCNYqJme5buSbpG6Xps-101">
          <mxCell style="rounded=0;whiteSpace=wrap;html=1;fillColor=none;strokeColor=none;" vertex="1" parent="link_page">
            <mxGeometry x="160" y="470" width="150" height="200" as="geometry" />
          </mxCell>
        </UserObject>
        <UserObject label="" link="data:page/id,yWDscMMuRWJMGlv4B17W" id="kgCNYqJme5buSbpG6Xps-102">
          <mxCell style="rounded=0;whiteSpace=wrap;html=1;fillColor=none;strokeColor=none;" vertex="1" parent="link_page">
            <mxGeometry x="490" y="60" width="310" height="70" as="geometry" />
          </mxCell>
        </UserObject>
        <UserObject label="" link="data:page/id,Kr4uULbHvylFWKevy050" id="kgCNYqJme5buSbpG6Xps-103">
          <mxCell style="rounded=0;whiteSpace=wrap;html=1;fillColor=none;strokeColor=none;" vertex="1" parent="link_page">
            <mxGeometry x="490" y="148" width="310" height="70" as="geometry" />
          </mxCell>
        </UserObject>
        <UserObject label="" link="data:page/id,4VA7KJN7dV5QY49zFA5F" id="kgCNYqJme5buSbpG6Xps-104">
          <mxCell style="rounded=0;whiteSpace=wrap;html=1;fillColor=none;strokeColor=none;" vertex="1" parent="link_page">
            <mxGeometry x="490" y="243" width="310" height="70" as="geometry" />
          </mxCell>
        </UserObject>
        <UserObject label="" link="data:page/id,15uobyqJ6VLI6ihagU5o" id="kgCNYqJme5buSbpG6Xps-105">
          <mxCell style="rounded=0;whiteSpace=wrap;html=1;fillColor=none;strokeColor=none;" vertex="1" parent="link_page">
            <mxGeometry x="490" y="462" width="310" height="70" as="geometry" />
          </mxCell>
        </UserObject>
        <UserObject label="" link="data:page/id,qPdiFVU1kpRmRDOjAnlY" id="kgCNYqJme5buSbpG6Xps-106">
          <mxCell style="rounded=0;whiteSpace=wrap;html=1;fillColor=none;strokeColor=none;" vertex="1" parent="link_page">
            <mxGeometry x="490" y="540" width="160" height="70" as="geometry" />
          </mxCell>
        </UserObject>
        <UserObject label="" link="data:page/id,F-VVrgNnXJm4xsoxWWtV" id="kgCNYqJme5buSbpG6Xps-107">
          <mxCell style="rounded=0;whiteSpace=wrap;html=1;fillColor=none;strokeColor=none;" vertex="1" parent="link_page">
            <mxGeometry x="491" y="611" width="160" height="70" as="geometry" />
          </mxCell>
        </UserObject>
        <UserObject label="" link="data:page/id,yKdI5SsvLudctKzyRE9q" id="kgCNYqJme5buSbpG6Xps-108">
          <mxCell style="rounded=0;whiteSpace=wrap;html=1;fillColor=none;strokeColor=none;" vertex="1" parent="link_page">
            <mxGeometry x="491" y="681" width="160" height="70" as="geometry" />
          </mxCell>
        </UserObject>
        <UserObject label="" link="data:page/id,DxEl2P_VCztTHye4bVyO" id="kgCNYqJme5buSbpG6Xps-110">
          <mxCell style="rounded=0;whiteSpace=wrap;html=1;fillColor=none;strokeColor=none;" vertex="1" parent="link_page">
            <mxGeometry x="7" y="190" width="145" height="270" as="geometry" />
          </mxCell>
        </UserObject>
        <UserObject label="" link="data:page/id,-M8rawbZomwGLGuV7Hj4" id="kgCNYqJme5buSbpG6Xps-111">
          <mxCell style="rounded=0;whiteSpace=wrap;html=1;fillColor=none;strokeColor=none;" vertex="1" parent="link_page">
            <mxGeometry x="220" y="110" width="160" height="100" as="geometry" />
          </mxCell>
        </UserObject>
        <object label="other_data" id="other_data">
          <mxCell visible="0" parent="0" />
        </object>
        <mxCell id="kgCNYqJme5buSbpG6Xps-132" style="edgeStyle=orthogonalEdgeStyle;rounded=0;orthogonalLoop=1;jettySize=auto;html=1;exitX=0;exitY=0.5;exitDx=0;exitDy=0;entryX=1;entryY=0.5;entryDx=0;entryDy=0;" edge="1" parent="other_data">
          <mxGeometry relative="1" as="geometry">
            <mxPoint x="510" y="97" as="sourcePoint" />
            <mxPoint x="360" y="157" as="targetPoint" />
            <Array as="points">
              <mxPoint x="510" y="98" />
              <mxPoint x="440" y="98" />
              <mxPoint x="440" y="157" />
            </Array>
          </mxGeometry>
        </mxCell>
        <mxCell id="kgCNYqJme5buSbpG6Xps-133" style="edgeStyle=orthogonalEdgeStyle;rounded=0;orthogonalLoop=1;jettySize=auto;html=1;exitX=0;exitY=0.5;exitDx=0;exitDy=0;entryX=1;entryY=0.5;entryDx=0;entryDy=0;" edge="1" parent="other_data">
          <mxGeometry relative="1" as="geometry">
            <mxPoint x="360" y="157" as="targetPoint" />
            <mxPoint x="510" y="182" as="sourcePoint" />
            <Array as="points">
              <mxPoint x="440" y="182" />
              <mxPoint x="440" y="157" />
            </Array>
          </mxGeometry>
        </mxCell>
        <mxCell id="kgCNYqJme5buSbpG6Xps-134" style="edgeStyle=orthogonalEdgeStyle;rounded=0;orthogonalLoop=1;jettySize=auto;html=1;exitX=0;exitY=0.5;exitDx=0;exitDy=0;entryX=1;entryY=0.5;entryDx=0;entryDy=0;" edge="1" parent="other_data">
          <mxGeometry relative="1" as="geometry">
            <mxPoint x="510" y="277" as="sourcePoint" />
            <mxPoint x="360" y="157" as="targetPoint" />
            <Array as="points">
              <mxPoint x="510" y="278" />
              <mxPoint x="440" y="278" />
              <mxPoint x="440" y="157" />
            </Array>
          </mxGeometry>
        </mxCell>
        <mxCell id="kgCNYqJme5buSbpG6Xps-135" style="edgeStyle=orthogonalEdgeStyle;rounded=0;orthogonalLoop=1;jettySize=auto;html=1;exitX=0;exitY=0.5;exitDx=0;exitDy=0;entryX=1;entryY=0.5;entryDx=0;entryDy=0;" edge="1" parent="other_data">
          <mxGeometry relative="1" as="geometry">
            <mxPoint x="360" y="157" as="targetPoint" />
            <mxPoint x="510" y="497" as="sourcePoint" />
            <Array as="points">
              <mxPoint x="440" y="497" />
              <mxPoint x="440" y="157" />
            </Array>
          </mxGeometry>
        </mxCell>
        <mxCell id="kgCNYqJme5buSbpG6Xps-136" style="edgeStyle=orthogonalEdgeStyle;rounded=0;orthogonalLoop=1;jettySize=auto;html=1;exitX=0;exitY=0.5;exitDx=0;exitDy=0;entryX=1;entryY=0.5;entryDx=0;entryDy=0;" edge="1" parent="other_data">
          <mxGeometry relative="1" as="geometry">
            <mxPoint x="510" y="577" as="sourcePoint" />
            <mxPoint x="360" y="157" as="targetPoint" />
            <Array as="points">
              <mxPoint x="440" y="578" />
              <mxPoint x="440" y="157" />
            </Array>
          </mxGeometry>
        </mxCell>
        <mxCell id="kgCNYqJme5buSbpG6Xps-137" style="edgeStyle=orthogonalEdgeStyle;rounded=0;orthogonalLoop=1;jettySize=auto;html=1;exitX=0;exitY=0.5;exitDx=0;exitDy=0;entryX=1;entryY=0.5;entryDx=0;entryDy=0;" edge="1" parent="other_data">
          <mxGeometry relative="1" as="geometry">
            <mxPoint x="510" y="647" as="sourcePoint" />
            <mxPoint x="360" y="157" as="targetPoint" />
            <Array as="points">
              <mxPoint x="440" y="648" />
              <mxPoint x="440" y="157" />
            </Array>
          </mxGeometry>
        </mxCell>
        <mxCell id="kgCNYqJme5buSbpG6Xps-138" style="edgeStyle=orthogonalEdgeStyle;rounded=0;orthogonalLoop=1;jettySize=auto;html=1;exitX=0;exitY=0.5;exitDx=0;exitDy=0;entryX=1;entryY=0.5;entryDx=0;entryDy=0;" edge="1" parent="other_data">
          <mxGeometry relative="1" as="geometry">
            <mxPoint x="360" y="157" as="targetPoint" />
            <mxPoint x="510" y="717" as="sourcePoint" />
            <Array as="points">
              <mxPoint x="510" y="718" />
              <mxPoint x="440" y="718" />
              <mxPoint x="440" y="157" />
            </Array>
          </mxGeometry>
        </mxCell>
      </root>
    </mxGraphModel>
  </diagram>
  <diagram name="All Process" id="hek3KjSfgpxsC2nOAGGs">
    <mxGraphModel dx="1071" dy="560" grid="1" gridSize="10" guides="1" tooltips="1" connect="1" arrows="1" fold="1" page="1" pageScale="1" pageWidth="827" pageHeight="1169" math="0" shadow="0">
      <root>
        <mxCell id="0" />
        <mxCell id="1" parent="0" />
        <mxCell id="mqYOlhDuew44SmNAjXiU-4" value="Proceso 0 (Principal)" style="swimlane;whiteSpace=wrap;html=1;" vertex="1" parent="1">
          <mxGeometry x="50" y="80" width="300" height="340" as="geometry">
            <mxRectangle x="50" y="80" width="140" height="30" as="alternateBounds" />
          </mxGeometry>
        </mxCell>
        <mxCell id="mqYOlhDuew44SmNAjXiU-11" value="Start Up Screen" style="swimlane;whiteSpace=wrap;html=1;" vertex="1" parent="mqYOlhDuew44SmNAjXiU-4">
          <mxGeometry x="30" y="50" width="230" height="70" as="geometry" />
        </mxCell>
        <mxCell id="mqYOlhDuew44SmNAjXiU-12" value="Ventana Principal" style="swimlane;whiteSpace=wrap;html=1;" vertex="1" parent="mqYOlhDuew44SmNAjXiU-4">
          <mxGeometry x="30" y="170" width="230" height="110" as="geometry" />
        </mxCell>
        <mxCell id="mqYOlhDuew44SmNAjXiU-6" value="" style="edgeStyle=orthogonalEdgeStyle;html=1;strokeColor=#808080;endArrow=block;endSize=10;dashed=0;verticalAlign=bottom;strokeWidth=2;rounded=0;exitX=1;exitY=0.25;exitDx=0;exitDy=0;startArrow=block;startFill=1;entryX=0;entryY=0.25;entryDx=0;entryDy=0;" edge="1" parent="1" source="mqYOlhDuew44SmNAjXiU-11" target="mqYOlhDuew44SmNAjXiU-7">
          <mxGeometry width="160" relative="1" as="geometry">
            <mxPoint x="250" y="160" as="sourcePoint" />
            <mxPoint x="420" y="210" as="targetPoint" />
            <Array as="points">
              <mxPoint x="390" y="148" />
              <mxPoint x="390" y="160" />
            </Array>
          </mxGeometry>
        </mxCell>
        <mxCell id="mqYOlhDuew44SmNAjXiU-7" value="Proceso 1 (Musico)" style="swimlane;whiteSpace=wrap;html=1;" vertex="1" parent="1">
          <mxGeometry x="450" y="80" width="300" height="320" as="geometry">
            <mxRectangle x="450" y="80" width="140" height="30" as="alternateBounds" />
          </mxGeometry>
        </mxCell>
        <mxCell id="mqYOlhDuew44SmNAjXiU-14" value="" style="edgeStyle=orthogonalEdgeStyle;html=1;strokeColor=#808080;endArrow=block;endSize=10;dashed=0;verticalAlign=bottom;strokeWidth=2;rounded=0;exitX=1;exitY=0.5;exitDx=0;exitDy=0;startArrow=block;startFill=1;entryX=0;entryY=0.25;entryDx=0;entryDy=0;" edge="1" parent="1" source="mqYOlhDuew44SmNAjXiU-12" target="mqYOlhDuew44SmNAjXiU-7">
          <mxGeometry width="160" relative="1" as="geometry">
            <mxPoint x="320" y="158" as="sourcePoint" />
            <mxPoint x="420" y="60" as="targetPoint" />
            <Array as="points">
              <mxPoint x="390" y="305" />
              <mxPoint x="390" y="160" />
            </Array>
          </mxGeometry>
        </mxCell>
      </root>
    </mxGraphModel>
  </diagram>
  <diagram id="DxEl2P_VCztTHye4bVyO" name="Proceso Principal">
    <mxGraphModel dx="1400" dy="732" grid="1" gridSize="10" guides="1" tooltips="1" connect="1" arrows="1" fold="1" page="1" pageScale="1" pageWidth="827" pageHeight="1169" math="0" shadow="0">
      <root>
        <mxCell id="0" />
        <mxCell id="1" parent="0" />
        <mxCell id="GnvjoAfSB2vBipjHNiF2-3" value="" style="edgeStyle=orthogonalEdgeStyle;rounded=0;orthogonalLoop=1;jettySize=auto;html=1;" edge="1" parent="1" source="GnvjoAfSB2vBipjHNiF2-1" target="GnvjoAfSB2vBipjHNiF2-2">
          <mxGeometry relative="1" as="geometry" />
        </mxCell>
        <mxCell id="GnvjoAfSB2vBipjHNiF2-1" value="Abrir ventana de StartUp" style="rounded=0;whiteSpace=wrap;html=1;" vertex="1" parent="1">
          <mxGeometry x="33" y="80" width="120" height="60" as="geometry" />
        </mxCell>
        <mxCell id="GnvjoAfSB2vBipjHNiF2-10" value="" style="edgeStyle=orthogonalEdgeStyle;rounded=0;orthogonalLoop=1;jettySize=auto;html=1;" edge="1" parent="1" source="GnvjoAfSB2vBipjHNiF2-2" target="GnvjoAfSB2vBipjHNiF2-9">
          <mxGeometry relative="1" as="geometry" />
        </mxCell>
        <mxCell id="GnvjoAfSB2vBipjHNiF2-2" value="Crea&amp;nbsp;Shared Data" style="rounded=0;whiteSpace=wrap;html=1;" vertex="1" parent="1">
          <mxGeometry x="213" y="80" width="120" height="60" as="geometry" />
        </mxCell>
        <mxCell id="GnvjoAfSB2vBipjHNiF2-16" value="" style="edgeStyle=orthogonalEdgeStyle;rounded=0;orthogonalLoop=1;jettySize=auto;html=1;" edge="1" parent="1" source="GnvjoAfSB2vBipjHNiF2-9" target="GnvjoAfSB2vBipjHNiF2-15">
          <mxGeometry relative="1" as="geometry" />
        </mxCell>
        <mxCell id="GnvjoAfSB2vBipjHNiF2-9" value="Crear Evento para comunicar procesos" style="rounded=0;whiteSpace=wrap;html=1;" vertex="1" parent="1">
          <mxGeometry x="383" y="80" width="120" height="60" as="geometry" />
        </mxCell>
        <mxCell id="GnvjoAfSB2vBipjHNiF2-12" value="" style="group" vertex="1" connectable="0" parent="1">
          <mxGeometry x="473" y="50" width="30" height="40" as="geometry" />
        </mxCell>
        <mxCell id="GnvjoAfSB2vBipjHNiF2-8" value="" style="html=1;verticalLabelPosition=bottom;align=center;labelBackgroundColor=#ffffff;verticalAlign=top;strokeWidth=2;strokeColor=#00CC00;shadow=0;dashed=0;shape=mxgraph.ios7.icons.flag;" vertex="1" parent="GnvjoAfSB2vBipjHNiF2-12">
          <mxGeometry width="30" height="40" as="geometry" />
        </mxCell>
        <mxCell id="GnvjoAfSB2vBipjHNiF2-11" value="1" style="ellipse;whiteSpace=wrap;html=1;aspect=fixed;strokeWidth=2;strokeColor=#00CC00;fontSize=12;fontColor=#00CC00;fontStyle=1" vertex="1" parent="GnvjoAfSB2vBipjHNiF2-12">
          <mxGeometry x="8" y="4" width="14" height="14" as="geometry" />
        </mxCell>
        <mxCell id="HHfhpNXmFaZD1TQOSy0r-2" value="" style="edgeStyle=orthogonalEdgeStyle;rounded=0;orthogonalLoop=1;jettySize=auto;html=1;" edge="1" parent="1" source="GnvjoAfSB2vBipjHNiF2-15" target="HHfhpNXmFaZD1TQOSy0r-1">
          <mxGeometry relative="1" as="geometry" />
        </mxCell>
        <mxCell id="GnvjoAfSB2vBipjHNiF2-15" value="Crear Musico" style="rounded=0;whiteSpace=wrap;html=1;" vertex="1" parent="1">
          <mxGeometry x="563" y="80" width="120" height="60" as="geometry" />
        </mxCell>
        <mxCell id="HHfhpNXmFaZD1TQOSy0r-4" style="edgeStyle=orthogonalEdgeStyle;rounded=0;orthogonalLoop=1;jettySize=auto;html=1;exitX=1;exitY=0.5;exitDx=0;exitDy=0;entryX=0;entryY=0.5;entryDx=0;entryDy=0;" edge="1" parent="1" source="HHfhpNXmFaZD1TQOSy0r-1" target="HHfhpNXmFaZD1TQOSy0r-3">
          <mxGeometry relative="1" as="geometry" />
        </mxCell>
        <mxCell id="HHfhpNXmFaZD1TQOSy0r-12" value="NO" style="edgeLabel;html=1;align=center;verticalAlign=middle;resizable=0;points=[];" vertex="1" connectable="0" parent="HHfhpNXmFaZD1TQOSy0r-4">
          <mxGeometry x="-0.3044" y="-3" relative="1" as="geometry">
            <mxPoint x="1" y="-3" as="offset" />
          </mxGeometry>
        </mxCell>
        <mxCell id="HHfhpNXmFaZD1TQOSy0r-8" value="" style="edgeStyle=orthogonalEdgeStyle;rounded=0;orthogonalLoop=1;jettySize=auto;html=1;" edge="1" parent="1" source="HHfhpNXmFaZD1TQOSy0r-1" target="HHfhpNXmFaZD1TQOSy0r-7">
          <mxGeometry relative="1" as="geometry" />
        </mxCell>
        <mxCell id="HHfhpNXmFaZD1TQOSy0r-14" value="SI" style="edgeLabel;html=1;align=center;verticalAlign=middle;resizable=0;points=[];" vertex="1" connectable="0" parent="HHfhpNXmFaZD1TQOSy0r-8">
          <mxGeometry x="-0.0447" y="6" relative="1" as="geometry">
            <mxPoint y="-5" as="offset" />
          </mxGeometry>
        </mxCell>
        <UserObject label="¿Estan listos todos los dispositivos?" tooltip="Cada uno de los drivers:&#xa;- X Driver&#xa;- Z Driver&#xa;- Alpha Driver&#xa;...&#xa;Envia un mensaje cuando termina su rutina de inicio y está listo para ser operado" id="HHfhpNXmFaZD1TQOSy0r-1">
          <mxCell style="rhombus;whiteSpace=wrap;html=1;rounded=0;" vertex="1" parent="1">
            <mxGeometry x="573" y="180" width="100" height="100" as="geometry" />
          </mxCell>
        </UserObject>
        <mxCell id="HHfhpNXmFaZD1TQOSy0r-5" style="edgeStyle=orthogonalEdgeStyle;rounded=0;orthogonalLoop=1;jettySize=auto;html=1;exitX=1;exitY=0.5;exitDx=0;exitDy=0;entryX=0.5;entryY=0;entryDx=0;entryDy=0;" edge="1" parent="1" source="HHfhpNXmFaZD1TQOSy0r-3" target="HHfhpNXmFaZD1TQOSy0r-1">
          <mxGeometry relative="1" as="geometry">
            <Array as="points">
              <mxPoint x="810" y="230" />
              <mxPoint x="810" y="160" />
              <mxPoint x="623" y="160" />
            </Array>
          </mxGeometry>
        </mxCell>
        <mxCell id="HHfhpNXmFaZD1TQOSy0r-3" value="Delay" style="shape=delay;whiteSpace=wrap;html=1;" vertex="1" parent="1">
          <mxGeometry x="720" y="210" width="80" height="40" as="geometry" />
        </mxCell>
        <mxCell id="HHfhpNXmFaZD1TQOSy0r-10" value="" style="edgeStyle=orthogonalEdgeStyle;rounded=0;orthogonalLoop=1;jettySize=auto;html=1;" edge="1" parent="1" source="HHfhpNXmFaZD1TQOSy0r-7" target="HHfhpNXmFaZD1TQOSy0r-9">
          <mxGeometry relative="1" as="geometry" />
        </mxCell>
        <mxCell id="HHfhpNXmFaZD1TQOSy0r-7" value="Cerrar ventana de StartUp" style="whiteSpace=wrap;html=1;rounded=0;" vertex="1" parent="1">
          <mxGeometry x="383" y="200" width="120" height="60" as="geometry" />
        </mxCell>
        <mxCell id="LQSY5Uer4xuGlrJxe2Y0-4" value="" style="edgeStyle=orthogonalEdgeStyle;rounded=0;orthogonalLoop=1;jettySize=auto;html=1;" edge="1" parent="1" source="HHfhpNXmFaZD1TQOSy0r-9" target="LQSY5Uer4xuGlrJxe2Y0-3">
          <mxGeometry relative="1" as="geometry" />
        </mxCell>
        <mxCell id="HHfhpNXmFaZD1TQOSy0r-9" value="Abrir ventana principal" style="whiteSpace=wrap;html=1;rounded=0;" vertex="1" parent="1">
          <mxGeometry x="213" y="200" width="120" height="60" as="geometry" />
        </mxCell>
        <mxCell id="LQSY5Uer4xuGlrJxe2Y0-2" style="edgeStyle=orthogonalEdgeStyle;rounded=0;orthogonalLoop=1;jettySize=auto;html=1;exitX=0.5;exitY=0;exitDx=0;exitDy=0;entryX=0.5;entryY=1;entryDx=0;entryDy=0;" edge="1" parent="1" source="LQSY5Uer4xuGlrJxe2Y0-1" target="GnvjoAfSB2vBipjHNiF2-1">
          <mxGeometry relative="1" as="geometry" />
        </mxCell>
        <mxCell id="LQSY5Uer4xuGlrJxe2Y0-1" value="Start" style="ellipse;whiteSpace=wrap;html=1;aspect=fixed;" vertex="1" parent="1">
          <mxGeometry x="53" y="190" width="80" height="80" as="geometry" />
        </mxCell>
        <mxCell id="LQSY5Uer4xuGlrJxe2Y0-39" style="edgeStyle=orthogonalEdgeStyle;rounded=0;orthogonalLoop=1;jettySize=auto;html=1;exitX=1;exitY=0.5;exitDx=0;exitDy=0;entryX=0;entryY=0.5;entryDx=0;entryDy=0;" edge="1" parent="1" source="LQSY5Uer4xuGlrJxe2Y0-3" target="LQSY5Uer4xuGlrJxe2Y0-7">
          <mxGeometry relative="1" as="geometry" />
        </mxCell>
        <mxCell id="LQSY5Uer4xuGlrJxe2Y0-40" style="edgeStyle=orthogonalEdgeStyle;rounded=0;orthogonalLoop=1;jettySize=auto;html=1;exitX=1;exitY=0.5;exitDx=0;exitDy=0;entryX=0;entryY=0.5;entryDx=0;entryDy=0;" edge="1" parent="1" source="LQSY5Uer4xuGlrJxe2Y0-3" target="LQSY5Uer4xuGlrJxe2Y0-8">
          <mxGeometry relative="1" as="geometry" />
        </mxCell>
        <mxCell id="LQSY5Uer4xuGlrJxe2Y0-41" style="edgeStyle=orthogonalEdgeStyle;rounded=0;orthogonalLoop=1;jettySize=auto;html=1;exitX=1;exitY=0.5;exitDx=0;exitDy=0;entryX=0;entryY=0.5;entryDx=0;entryDy=0;" edge="1" parent="1" source="LQSY5Uer4xuGlrJxe2Y0-3" target="LQSY5Uer4xuGlrJxe2Y0-9">
          <mxGeometry relative="1" as="geometry" />
        </mxCell>
        <mxCell id="LQSY5Uer4xuGlrJxe2Y0-42" style="edgeStyle=orthogonalEdgeStyle;rounded=0;orthogonalLoop=1;jettySize=auto;html=1;exitX=1;exitY=0.5;exitDx=0;exitDy=0;entryX=0;entryY=0.5;entryDx=0;entryDy=0;" edge="1" parent="1" source="LQSY5Uer4xuGlrJxe2Y0-3" target="LQSY5Uer4xuGlrJxe2Y0-10">
          <mxGeometry relative="1" as="geometry" />
        </mxCell>
        <mxCell id="LQSY5Uer4xuGlrJxe2Y0-43" style="edgeStyle=orthogonalEdgeStyle;rounded=0;orthogonalLoop=1;jettySize=auto;html=1;exitX=1;exitY=0.5;exitDx=0;exitDy=0;entryX=0;entryY=0.5;entryDx=0;entryDy=0;" edge="1" parent="1" source="LQSY5Uer4xuGlrJxe2Y0-3" target="LQSY5Uer4xuGlrJxe2Y0-11">
          <mxGeometry relative="1" as="geometry" />
        </mxCell>
        <mxCell id="LQSY5Uer4xuGlrJxe2Y0-44" style="edgeStyle=orthogonalEdgeStyle;rounded=0;orthogonalLoop=1;jettySize=auto;html=1;exitX=1;exitY=0.5;exitDx=0;exitDy=0;entryX=0;entryY=0.5;entryDx=0;entryDy=0;" edge="1" parent="1" source="LQSY5Uer4xuGlrJxe2Y0-3" target="LQSY5Uer4xuGlrJxe2Y0-12">
          <mxGeometry relative="1" as="geometry" />
        </mxCell>
        <mxCell id="LQSY5Uer4xuGlrJxe2Y0-45" style="edgeStyle=orthogonalEdgeStyle;rounded=0;orthogonalLoop=1;jettySize=auto;html=1;exitX=1;exitY=0.5;exitDx=0;exitDy=0;entryX=0;entryY=0.5;entryDx=0;entryDy=0;" edge="1" parent="1" source="LQSY5Uer4xuGlrJxe2Y0-3" target="LQSY5Uer4xuGlrJxe2Y0-13">
          <mxGeometry relative="1" as="geometry" />
        </mxCell>
        <mxCell id="LQSY5Uer4xuGlrJxe2Y0-46" style="edgeStyle=orthogonalEdgeStyle;rounded=0;orthogonalLoop=1;jettySize=auto;html=1;exitX=1;exitY=0.5;exitDx=0;exitDy=0;entryX=0;entryY=0.5;entryDx=0;entryDy=0;" edge="1" parent="1" source="LQSY5Uer4xuGlrJxe2Y0-3" target="LQSY5Uer4xuGlrJxe2Y0-15">
          <mxGeometry relative="1" as="geometry" />
        </mxCell>
        <mxCell id="LQSY5Uer4xuGlrJxe2Y0-47" style="edgeStyle=orthogonalEdgeStyle;rounded=0;orthogonalLoop=1;jettySize=auto;html=1;exitX=1;exitY=0.5;exitDx=0;exitDy=0;entryX=0;entryY=0.5;entryDx=0;entryDy=0;" edge="1" parent="1" source="LQSY5Uer4xuGlrJxe2Y0-3" target="LQSY5Uer4xuGlrJxe2Y0-16">
          <mxGeometry relative="1" as="geometry" />
        </mxCell>
        <mxCell id="LQSY5Uer4xuGlrJxe2Y0-48" style="edgeStyle=orthogonalEdgeStyle;rounded=0;orthogonalLoop=1;jettySize=auto;html=1;exitX=1;exitY=0.5;exitDx=0;exitDy=0;entryX=0;entryY=0.5;entryDx=0;entryDy=0;" edge="1" parent="1" source="LQSY5Uer4xuGlrJxe2Y0-3" target="LQSY5Uer4xuGlrJxe2Y0-17">
          <mxGeometry relative="1" as="geometry" />
        </mxCell>
        <mxCell id="LQSY5Uer4xuGlrJxe2Y0-49" style="edgeStyle=orthogonalEdgeStyle;rounded=0;orthogonalLoop=1;jettySize=auto;html=1;exitX=1;exitY=0.5;exitDx=0;exitDy=0;entryX=0;entryY=0.5;entryDx=0;entryDy=0;" edge="1" parent="1" source="LQSY5Uer4xuGlrJxe2Y0-3" target="LQSY5Uer4xuGlrJxe2Y0-18">
          <mxGeometry relative="1" as="geometry" />
        </mxCell>
        <mxCell id="LQSY5Uer4xuGlrJxe2Y0-50" style="edgeStyle=orthogonalEdgeStyle;rounded=0;orthogonalLoop=1;jettySize=auto;html=1;exitX=1;exitY=0.5;exitDx=0;exitDy=0;entryX=0;entryY=0.5;entryDx=0;entryDy=0;" edge="1" parent="1" source="LQSY5Uer4xuGlrJxe2Y0-3" target="LQSY5Uer4xuGlrJxe2Y0-19">
          <mxGeometry relative="1" as="geometry" />
        </mxCell>
        <mxCell id="LQSY5Uer4xuGlrJxe2Y0-51" style="edgeStyle=orthogonalEdgeStyle;rounded=0;orthogonalLoop=1;jettySize=auto;html=1;exitX=1;exitY=0.5;exitDx=0;exitDy=0;entryX=0;entryY=0.5;entryDx=0;entryDy=0;" edge="1" parent="1" source="LQSY5Uer4xuGlrJxe2Y0-3" target="LQSY5Uer4xuGlrJxe2Y0-20">
          <mxGeometry relative="1" as="geometry" />
        </mxCell>
        <mxCell id="LQSY5Uer4xuGlrJxe2Y0-52" style="edgeStyle=orthogonalEdgeStyle;rounded=0;orthogonalLoop=1;jettySize=auto;html=1;exitX=1;exitY=0.5;exitDx=0;exitDy=0;entryX=0;entryY=0.5;entryDx=0;entryDy=0;" edge="1" parent="1" source="LQSY5Uer4xuGlrJxe2Y0-3" target="LQSY5Uer4xuGlrJxe2Y0-21">
          <mxGeometry relative="1" as="geometry" />
        </mxCell>
        <mxCell id="LQSY5Uer4xuGlrJxe2Y0-53" style="edgeStyle=orthogonalEdgeStyle;rounded=0;orthogonalLoop=1;jettySize=auto;html=1;exitX=1;exitY=0.5;exitDx=0;exitDy=0;entryX=0;entryY=0.5;entryDx=0;entryDy=0;" edge="1" parent="1" source="LQSY5Uer4xuGlrJxe2Y0-3" target="LQSY5Uer4xuGlrJxe2Y0-22">
          <mxGeometry relative="1" as="geometry" />
        </mxCell>
        <mxCell id="LQSY5Uer4xuGlrJxe2Y0-54" style="edgeStyle=orthogonalEdgeStyle;rounded=0;orthogonalLoop=1;jettySize=auto;html=1;exitX=1;exitY=0.5;exitDx=0;exitDy=0;entryX=0;entryY=0.5;entryDx=0;entryDy=0;" edge="1" parent="1" source="LQSY5Uer4xuGlrJxe2Y0-3" target="LQSY5Uer4xuGlrJxe2Y0-23">
          <mxGeometry relative="1" as="geometry" />
        </mxCell>
        <mxCell id="LQSY5Uer4xuGlrJxe2Y0-55" style="edgeStyle=orthogonalEdgeStyle;rounded=0;orthogonalLoop=1;jettySize=auto;html=1;exitX=1;exitY=0.5;exitDx=0;exitDy=0;entryX=0;entryY=0.5;entryDx=0;entryDy=0;" edge="1" parent="1" source="LQSY5Uer4xuGlrJxe2Y0-3" target="LQSY5Uer4xuGlrJxe2Y0-24">
          <mxGeometry relative="1" as="geometry" />
        </mxCell>
        <mxCell id="LQSY5Uer4xuGlrJxe2Y0-56" style="edgeStyle=orthogonalEdgeStyle;rounded=0;orthogonalLoop=1;jettySize=auto;html=1;exitX=1;exitY=0.5;exitDx=0;exitDy=0;entryX=0;entryY=0.5;entryDx=0;entryDy=0;" edge="1" parent="1" source="LQSY5Uer4xuGlrJxe2Y0-3" target="LQSY5Uer4xuGlrJxe2Y0-25">
          <mxGeometry relative="1" as="geometry" />
        </mxCell>
        <mxCell id="LQSY5Uer4xuGlrJxe2Y0-57" style="edgeStyle=orthogonalEdgeStyle;rounded=0;orthogonalLoop=1;jettySize=auto;html=1;exitX=1;exitY=0.5;exitDx=0;exitDy=0;entryX=0;entryY=0.5;entryDx=0;entryDy=0;" edge="1" parent="1" source="LQSY5Uer4xuGlrJxe2Y0-3" target="LQSY5Uer4xuGlrJxe2Y0-27">
          <mxGeometry relative="1" as="geometry" />
        </mxCell>
        <mxCell id="LQSY5Uer4xuGlrJxe2Y0-58" style="edgeStyle=orthogonalEdgeStyle;rounded=0;orthogonalLoop=1;jettySize=auto;html=1;exitX=1;exitY=0.5;exitDx=0;exitDy=0;entryX=0;entryY=0.5;entryDx=0;entryDy=0;" edge="1" parent="1" source="LQSY5Uer4xuGlrJxe2Y0-3" target="LQSY5Uer4xuGlrJxe2Y0-28">
          <mxGeometry relative="1" as="geometry" />
        </mxCell>
        <mxCell id="LQSY5Uer4xuGlrJxe2Y0-59" style="edgeStyle=orthogonalEdgeStyle;rounded=0;orthogonalLoop=1;jettySize=auto;html=1;exitX=1;exitY=0.5;exitDx=0;exitDy=0;entryX=0;entryY=0.5;entryDx=0;entryDy=0;" edge="1" parent="1" source="LQSY5Uer4xuGlrJxe2Y0-3" target="LQSY5Uer4xuGlrJxe2Y0-29">
          <mxGeometry relative="1" as="geometry" />
        </mxCell>
        <mxCell id="LQSY5Uer4xuGlrJxe2Y0-60" style="edgeStyle=orthogonalEdgeStyle;rounded=0;orthogonalLoop=1;jettySize=auto;html=1;exitX=1;exitY=0.5;exitDx=0;exitDy=0;entryX=0;entryY=0.5;entryDx=0;entryDy=0;" edge="1" parent="1" source="LQSY5Uer4xuGlrJxe2Y0-3" target="LQSY5Uer4xuGlrJxe2Y0-30">
          <mxGeometry relative="1" as="geometry" />
        </mxCell>
        <mxCell id="LQSY5Uer4xuGlrJxe2Y0-61" style="edgeStyle=orthogonalEdgeStyle;rounded=0;orthogonalLoop=1;jettySize=auto;html=1;exitX=1;exitY=0.5;exitDx=0;exitDy=0;entryX=0;entryY=0.5;entryDx=0;entryDy=0;" edge="1" parent="1" source="LQSY5Uer4xuGlrJxe2Y0-3" target="LQSY5Uer4xuGlrJxe2Y0-31">
          <mxGeometry relative="1" as="geometry" />
        </mxCell>
        <mxCell id="LQSY5Uer4xuGlrJxe2Y0-62" style="edgeStyle=orthogonalEdgeStyle;rounded=0;orthogonalLoop=1;jettySize=auto;html=1;exitX=1;exitY=0.5;exitDx=0;exitDy=0;entryX=0;entryY=0.5;entryDx=0;entryDy=0;" edge="1" parent="1" source="LQSY5Uer4xuGlrJxe2Y0-3" target="LQSY5Uer4xuGlrJxe2Y0-33">
          <mxGeometry relative="1" as="geometry" />
        </mxCell>
        <mxCell id="LQSY5Uer4xuGlrJxe2Y0-63" style="edgeStyle=orthogonalEdgeStyle;rounded=0;orthogonalLoop=1;jettySize=auto;html=1;exitX=1;exitY=0.5;exitDx=0;exitDy=0;entryX=0;entryY=0.5;entryDx=0;entryDy=0;" edge="1" parent="1" source="LQSY5Uer4xuGlrJxe2Y0-3" target="LQSY5Uer4xuGlrJxe2Y0-34">
          <mxGeometry relative="1" as="geometry" />
        </mxCell>
        <mxCell id="LQSY5Uer4xuGlrJxe2Y0-64" style="edgeStyle=orthogonalEdgeStyle;rounded=0;orthogonalLoop=1;jettySize=auto;html=1;exitX=1;exitY=0.5;exitDx=0;exitDy=0;entryX=0;entryY=0.5;entryDx=0;entryDy=0;" edge="1" parent="1" source="LQSY5Uer4xuGlrJxe2Y0-3" target="LQSY5Uer4xuGlrJxe2Y0-35">
          <mxGeometry relative="1" as="geometry" />
        </mxCell>
        <mxCell id="LQSY5Uer4xuGlrJxe2Y0-65" style="edgeStyle=orthogonalEdgeStyle;rounded=0;orthogonalLoop=1;jettySize=auto;html=1;exitX=1;exitY=0.5;exitDx=0;exitDy=0;entryX=0;entryY=0.5;entryDx=0;entryDy=0;" edge="1" parent="1" source="LQSY5Uer4xuGlrJxe2Y0-3" target="LQSY5Uer4xuGlrJxe2Y0-36">
          <mxGeometry relative="1" as="geometry" />
        </mxCell>
        <mxCell id="LQSY5Uer4xuGlrJxe2Y0-66" style="edgeStyle=orthogonalEdgeStyle;rounded=0;orthogonalLoop=1;jettySize=auto;html=1;exitX=1;exitY=0.5;exitDx=0;exitDy=0;entryX=0;entryY=0.5;entryDx=0;entryDy=0;" edge="1" parent="1" source="LQSY5Uer4xuGlrJxe2Y0-3" target="LQSY5Uer4xuGlrJxe2Y0-37">
          <mxGeometry relative="1" as="geometry" />
        </mxCell>
        <mxCell id="LQSY5Uer4xuGlrJxe2Y0-3" value="Casos de usuario" style="whiteSpace=wrap;html=1;rounded=0;" vertex="1" parent="1">
          <mxGeometry x="213" y="340" width="120" height="60" as="geometry" />
        </mxCell>
        <mxCell id="LQSY5Uer4xuGlrJxe2Y0-6" style="edgeStyle=orthogonalEdgeStyle;rounded=0;orthogonalLoop=1;jettySize=auto;html=1;exitX=1;exitY=0.6;exitDx=11;exitDy=0;exitPerimeter=0;entryX=0;entryY=0.5;entryDx=0;entryDy=0;" edge="1" parent="1" source="LQSY5Uer4xuGlrJxe2Y0-5" target="LQSY5Uer4xuGlrJxe2Y0-3">
          <mxGeometry relative="1" as="geometry" />
        </mxCell>
        <mxCell id="LQSY5Uer4xuGlrJxe2Y0-5" value="Actor" style="shape=umlActor;verticalLabelPosition=bottom;verticalAlign=top;html=1;outlineConnect=0;points=[[0,0.3333333333333333,0,0,0],[0,1,0,0,0],[0.25,0.1,0,0,0],[0.5,0,0,0,0],[0.5,0.5,0,0,0],[0.75,0.1,0,0,0],[1,0.3333333333333333,0,0,0],[1,0.6,0,11,0],[1,1,0,0,0]];" vertex="1" parent="1">
          <mxGeometry x="90" y="334" width="30" height="60" as="geometry" />
        </mxCell>
        <mxCell id="fBXh4rmm6Y50_M_y6_aC-3" style="edgeStyle=orthogonalEdgeStyle;rounded=0;orthogonalLoop=1;jettySize=auto;html=1;exitX=1;exitY=0.5;exitDx=0;exitDy=0;entryX=0;entryY=0.5;entryDx=0;entryDy=0;" edge="1" parent="1" source="LQSY5Uer4xuGlrJxe2Y0-7" target="fBXh4rmm6Y50_M_y6_aC-2">
          <mxGeometry relative="1" as="geometry" />
        </mxCell>
        <mxCell id="LQSY5Uer4xuGlrJxe2Y0-7" value="Nuevo documento" style="rounded=0;whiteSpace=wrap;html=1;" vertex="1" parent="1">
          <mxGeometry x="383" y="355" width="120" height="30" as="geometry" />
        </mxCell>
        <mxCell id="LQSY5Uer4xuGlrJxe2Y0-8" value="Abrir documento" style="rounded=0;whiteSpace=wrap;html=1;" vertex="1" parent="1">
          <mxGeometry x="383" y="395" width="120" height="30" as="geometry" />
        </mxCell>
        <mxCell id="LQSY5Uer4xuGlrJxe2Y0-9" value="Guardar documento" style="rounded=0;whiteSpace=wrap;html=1;" vertex="1" parent="1">
          <mxGeometry x="383" y="435" width="120" height="30" as="geometry" />
        </mxCell>
        <mxCell id="LQSY5Uer4xuGlrJxe2Y0-10" value="Abrir Ajustes" style="rounded=0;whiteSpace=wrap;html=1;" vertex="1" parent="1">
          <mxGeometry x="383" y="475" width="120" height="30" as="geometry" />
        </mxCell>
        <mxCell id="LQSY5Uer4xuGlrJxe2Y0-11" value="Undo" style="rounded=0;whiteSpace=wrap;html=1;" vertex="1" parent="1">
          <mxGeometry x="383" y="515" width="120" height="30" as="geometry" />
        </mxCell>
        <mxCell id="LQSY5Uer4xuGlrJxe2Y0-12" value="Redo" style="rounded=0;whiteSpace=wrap;html=1;" vertex="1" parent="1">
          <mxGeometry x="383" y="555" width="120" height="30" as="geometry" />
        </mxCell>
        <mxCell id="LQSY5Uer4xuGlrJxe2Y0-13" value="Cambiar de espacio" style="rounded=0;whiteSpace=wrap;html=1;" vertex="1" parent="1">
          <mxGeometry x="383" y="595" width="120" height="30" as="geometry" />
        </mxCell>
        <mxCell id="LQSY5Uer4xuGlrJxe2Y0-15" value="Plotear señal" style="rounded=0;whiteSpace=wrap;html=1;" vertex="1" parent="1">
          <mxGeometry x="383" y="635" width="120" height="30" as="geometry" />
        </mxCell>
        <mxCell id="LQSY5Uer4xuGlrJxe2Y0-16" value="Agregar punto" style="rounded=0;whiteSpace=wrap;html=1;" vertex="1" parent="1">
          <mxGeometry x="383" y="675" width="120" height="30" as="geometry" />
        </mxCell>
        <mxCell id="LQSY5Uer4xuGlrJxe2Y0-17" value="Agregar vibrato" style="rounded=0;whiteSpace=wrap;html=1;" vertex="1" parent="1">
          <mxGeometry x="383" y="715" width="120" height="30" as="geometry" />
        </mxCell>
        <mxCell id="LQSY5Uer4xuGlrJxe2Y0-18" value="Agregar filtro" style="rounded=0;whiteSpace=wrap;html=1;" vertex="1" parent="1">
          <mxGeometry x="383" y="755" width="120" height="30" as="geometry" />
        </mxCell>
        <mxCell id="LQSY5Uer4xuGlrJxe2Y0-19" value="Agregar nota" style="rounded=0;whiteSpace=wrap;html=1;" vertex="1" parent="1">
          <mxGeometry x="383" y="795" width="120" height="30" as="geometry" />
        </mxCell>
        <mxCell id="LQSY5Uer4xuGlrJxe2Y0-20" value="Agregar trill" style="rounded=0;whiteSpace=wrap;html=1;" vertex="1" parent="1">
          <mxGeometry x="383" y="835" width="120" height="30" as="geometry" />
        </mxCell>
        <mxCell id="LQSY5Uer4xuGlrJxe2Y0-21" value="Mover cursor" style="rounded=0;whiteSpace=wrap;html=1;" vertex="1" parent="1">
          <mxGeometry x="383" y="875" width="120" height="30" as="geometry" />
        </mxCell>
        <mxCell id="LQSY5Uer4xuGlrJxe2Y0-22" value="Desactivar visibilidad de graficos" style="rounded=0;whiteSpace=wrap;html=1;" vertex="1" parent="1">
          <mxGeometry x="383" y="915" width="120" height="30" as="geometry" />
        </mxCell>
        <mxCell id="LQSY5Uer4xuGlrJxe2Y0-23" value="Go to start point" style="rounded=0;whiteSpace=wrap;html=1;" vertex="1" parent="1">
          <mxGeometry x="383" y="955" width="120" height="30" as="geometry" />
        </mxCell>
        <mxCell id="LQSY5Uer4xuGlrJxe2Y0-24" value="Play" style="rounded=0;whiteSpace=wrap;html=1;" vertex="1" parent="1">
          <mxGeometry x="383" y="995" width="120" height="30" as="geometry" />
        </mxCell>
        <mxCell id="LQSY5Uer4xuGlrJxe2Y0-25" value="Stop" style="rounded=0;whiteSpace=wrap;html=1;" vertex="1" parent="1">
          <mxGeometry x="383" y="1035" width="120" height="30" as="geometry" />
        </mxCell>
        <mxCell id="LQSY5Uer4xuGlrJxe2Y0-27" value="Clear Plot" style="rounded=0;whiteSpace=wrap;html=1;" vertex="1" parent="1">
          <mxGeometry x="383" y="1075" width="120" height="30" as="geometry" />
        </mxCell>
        <mxCell id="LQSY5Uer4xuGlrJxe2Y0-28" value="States from notes" style="rounded=0;whiteSpace=wrap;html=1;" vertex="1" parent="1">
          <mxGeometry x="383" y="1115" width="120" height="30" as="geometry" />
        </mxCell>
        <mxCell id="LQSY5Uer4xuGlrJxe2Y0-29" value="Change duration" style="rounded=0;whiteSpace=wrap;html=1;" vertex="1" parent="1">
          <mxGeometry x="383" y="1155" width="120" height="30" as="geometry" />
        </mxCell>
        <mxCell id="LQSY5Uer4xuGlrJxe2Y0-30" value="Add correction" style="rounded=0;whiteSpace=wrap;html=1;" vertex="1" parent="1">
          <mxGeometry x="383" y="1195" width="120" height="30" as="geometry" />
        </mxCell>
        <mxCell id="LQSY5Uer4xuGlrJxe2Y0-31" value="Scale time" style="rounded=0;whiteSpace=wrap;html=1;" vertex="1" parent="1">
          <mxGeometry x="383" y="1234" width="120" height="30" as="geometry" />
        </mxCell>
        <mxCell id="LQSY5Uer4xuGlrJxe2Y0-33" value="See X, Z and Alpha" style="rounded=0;whiteSpace=wrap;html=1;" vertex="1" parent="1">
          <mxGeometry x="383" y="1275" width="120" height="30" as="geometry" />
        </mxCell>
        <mxCell id="LQSY5Uer4xuGlrJxe2Y0-34" value="Manual control" style="rounded=0;whiteSpace=wrap;html=1;" vertex="1" parent="1">
          <mxGeometry x="383" y="1315" width="120" height="30" as="geometry" />
        </mxCell>
        <mxCell id="LQSY5Uer4xuGlrJxe2Y0-35" value="PS Control" style="rounded=0;whiteSpace=wrap;html=1;" vertex="1" parent="1">
          <mxGeometry x="383" y="1355" width="120" height="30" as="geometry" />
        </mxCell>
        <mxCell id="LQSY5Uer4xuGlrJxe2Y0-36" value="Soft Stop" style="rounded=0;whiteSpace=wrap;html=1;" vertex="1" parent="1">
          <mxGeometry x="383" y="1395" width="120" height="30" as="geometry" />
        </mxCell>
        <mxCell id="LQSY5Uer4xuGlrJxe2Y0-68" value="" style="edgeStyle=orthogonalEdgeStyle;rounded=0;orthogonalLoop=1;jettySize=auto;html=1;" edge="1" parent="1" source="LQSY5Uer4xuGlrJxe2Y0-37" target="LQSY5Uer4xuGlrJxe2Y0-67">
          <mxGeometry relative="1" as="geometry" />
        </mxCell>
        <mxCell id="LQSY5Uer4xuGlrJxe2Y0-37" value="Close Window" style="rounded=0;whiteSpace=wrap;html=1;" vertex="1" parent="1">
          <mxGeometry x="383" y="1435" width="120" height="30" as="geometry" />
        </mxCell>
        <mxCell id="LQSY5Uer4xuGlrJxe2Y0-73" value="" style="edgeStyle=orthogonalEdgeStyle;rounded=0;orthogonalLoop=1;jettySize=auto;html=1;" edge="1" parent="1" source="LQSY5Uer4xuGlrJxe2Y0-67" target="LQSY5Uer4xuGlrJxe2Y0-72">
          <mxGeometry relative="1" as="geometry" />
        </mxCell>
        <mxCell id="LQSY5Uer4xuGlrJxe2Y0-67" value="Despejar Evento 1" style="whiteSpace=wrap;html=1;rounded=0;" vertex="1" parent="1">
          <mxGeometry x="530" y="1474" width="120" height="60" as="geometry" />
        </mxCell>
        <mxCell id="LQSY5Uer4xuGlrJxe2Y0-69" value="" style="group" vertex="1" connectable="0" parent="1">
          <mxGeometry x="620" y="1445" width="30" height="40" as="geometry" />
        </mxCell>
        <mxCell id="LQSY5Uer4xuGlrJxe2Y0-70" value="" style="html=1;verticalLabelPosition=bottom;align=center;labelBackgroundColor=#ffffff;verticalAlign=top;strokeWidth=2;strokeColor=#FF0000;shadow=0;dashed=0;shape=mxgraph.ios7.icons.flag;" vertex="1" parent="LQSY5Uer4xuGlrJxe2Y0-69">
          <mxGeometry width="30" height="40" as="geometry" />
        </mxCell>
        <mxCell id="LQSY5Uer4xuGlrJxe2Y0-71" value="1" style="ellipse;whiteSpace=wrap;html=1;aspect=fixed;strokeWidth=2;strokeColor=#FF0000;fontSize=12;fontColor=#FF0000;fontStyle=1" vertex="1" parent="LQSY5Uer4xuGlrJxe2Y0-69">
          <mxGeometry x="8" y="4" width="14" height="14" as="geometry" />
        </mxCell>
        <mxCell id="LQSY5Uer4xuGlrJxe2Y0-75" value="" style="edgeStyle=orthogonalEdgeStyle;rounded=0;orthogonalLoop=1;jettySize=auto;html=1;" edge="1" parent="1" source="LQSY5Uer4xuGlrJxe2Y0-72" target="LQSY5Uer4xuGlrJxe2Y0-74">
          <mxGeometry relative="1" as="geometry" />
        </mxCell>
        <mxCell id="LQSY5Uer4xuGlrJxe2Y0-72" value="Cerrar Ventana" style="whiteSpace=wrap;html=1;rounded=0;" vertex="1" parent="1">
          <mxGeometry x="683" y="1474" width="120" height="60" as="geometry" />
        </mxCell>
        <mxCell id="LQSY5Uer4xuGlrJxe2Y0-74" value="End" style="ellipse;whiteSpace=wrap;html=1;rounded=0;" vertex="1" parent="1">
          <mxGeometry x="703" y="1575" width="80" height="80" as="geometry" />
        </mxCell>
        <UserObject label="Inicio" link="data:page/id,jLNwFJ-DTcKx9sSIiEJo" id="LQSY5Uer4xuGlrJxe2Y0-76">
          <mxCell style="sketch=0;pointerEvents=1;shadow=0;dashed=0;html=1;strokeColor=none;fillColor=#000000;labelPosition=center;verticalLabelPosition=bottom;verticalAlign=top;outlineConnect=0;align=center;shape=mxgraph.office.concepts.home;" vertex="1" parent="1">
            <mxGeometry x="776" width="51" height="50" as="geometry" />
          </mxCell>
        </UserObject>
        <mxCell id="fBXh4rmm6Y50_M_y6_aC-4" style="edgeStyle=orthogonalEdgeStyle;rounded=0;orthogonalLoop=1;jettySize=auto;html=1;exitX=1;exitY=0.5;exitDx=0;exitDy=0;entryX=0.5;entryY=0;entryDx=0;entryDy=0;" edge="1" parent="1" source="fBXh4rmm6Y50_M_y6_aC-2" target="LQSY5Uer4xuGlrJxe2Y0-3">
          <mxGeometry relative="1" as="geometry">
            <Array as="points">
              <mxPoint x="810" y="370" />
              <mxPoint x="810" y="320" />
              <mxPoint x="273" y="320" />
            </Array>
          </mxGeometry>
        </mxCell>
        <mxCell id="fBXh4rmm6Y50_M_y6_aC-2" value="Nuevo documento" style="rounded=0;whiteSpace=wrap;html=1;" vertex="1" parent="1">
          <mxGeometry x="553" y="355" width="120" height="30" as="geometry" />
        </mxCell>
      </root>
    </mxGraphModel>
  </diagram>
  <diagram id="GozepwVMCVAPO_nHtGKL" name="Proceso Musico">
    <mxGraphModel dx="910" dy="476" grid="1" gridSize="10" guides="1" tooltips="1" connect="1" arrows="1" fold="1" page="1" pageScale="1" pageWidth="827" pageHeight="1169" math="0" shadow="0">
      <root>
        <mxCell id="0" />
        <mxCell id="1" parent="0" />
        <UserObject label="Inicio" id="KBWCkBFHlpDGEUVRSlwc-1">
          <mxCell style="sketch=0;pointerEvents=1;shadow=0;dashed=0;html=1;strokeColor=none;fillColor=#000000;labelPosition=center;verticalLabelPosition=bottom;verticalAlign=top;outlineConnect=0;align=center;shape=mxgraph.office.concepts.home;" vertex="1" parent="1">
            <mxGeometry x="703" y="339" width="51" height="50" as="geometry" />
          </mxCell>
        </UserObject>
      </root>
    </mxGraphModel>
  </diagram>
  <diagram id="_viWnQ1H4lERFUP8tuGF" name="Proceso Comunicaciones">
    <mxGraphModel dx="910" dy="476" grid="1" gridSize="10" guides="1" tooltips="1" connect="1" arrows="1" fold="1" page="1" pageScale="1" pageWidth="827" pageHeight="1169" math="0" shadow="0">
      <root>
        <mxCell id="0" />
        <mxCell id="1" parent="0" />
        <UserObject label="Inicio" id="e885YlgQFlHKWkUKCLnk-1">
          <mxCell style="sketch=0;pointerEvents=1;shadow=0;dashed=0;html=1;strokeColor=none;fillColor=#000000;labelPosition=center;verticalLabelPosition=bottom;verticalAlign=top;outlineConnect=0;align=center;shape=mxgraph.office.concepts.home;" vertex="1" parent="1">
            <mxGeometry x="703" y="339" width="51" height="50" as="geometry" />
          </mxCell>
        </UserObject>
      </root>
    </mxGraphModel>
  </diagram>
  <diagram id="yWDscMMuRWJMGlv4B17W" name="Proceso X">
    <mxGraphModel dx="910" dy="476" grid="1" gridSize="10" guides="1" tooltips="1" connect="1" arrows="1" fold="1" page="1" pageScale="1" pageWidth="827" pageHeight="1169" math="0" shadow="0">
      <root>
        <mxCell id="0" />
        <mxCell id="1" parent="0" />
        <UserObject label="Inicio" id="2XiPYBejdzQgId6Gfdr3-1">
          <mxCell style="sketch=0;pointerEvents=1;shadow=0;dashed=0;html=1;strokeColor=none;fillColor=#000000;labelPosition=center;verticalLabelPosition=bottom;verticalAlign=top;outlineConnect=0;align=center;shape=mxgraph.office.concepts.home;" vertex="1" parent="1">
            <mxGeometry x="703" y="339" width="51" height="50" as="geometry" />
          </mxCell>
        </UserObject>
      </root>
    </mxGraphModel>
  </diagram>
  <diagram id="Kr4uULbHvylFWKevy050" name="Proceso Z">
    <mxGraphModel dx="910" dy="476" grid="1" gridSize="10" guides="1" tooltips="1" connect="1" arrows="1" fold="1" page="1" pageScale="1" pageWidth="827" pageHeight="1169" math="0" shadow="0">
      <root>
        <mxCell id="0" />
        <mxCell id="1" parent="0" />
        <UserObject label="Inicio" id="k168YFJcBfiuFIrlLefp-1">
          <mxCell style="sketch=0;pointerEvents=1;shadow=0;dashed=0;html=1;strokeColor=none;fillColor=#000000;labelPosition=center;verticalLabelPosition=bottom;verticalAlign=top;outlineConnect=0;align=center;shape=mxgraph.office.concepts.home;" vertex="1" parent="1">
            <mxGeometry x="703" y="339" width="51" height="50" as="geometry" />
          </mxCell>
        </UserObject>
      </root>
    </mxGraphModel>
  </diagram>
  <diagram id="4VA7KJN7dV5QY49zFA5F" name="Proceso Alpha">
    <mxGraphModel dx="910" dy="476" grid="1" gridSize="10" guides="1" tooltips="1" connect="1" arrows="1" fold="1" page="1" pageScale="1" pageWidth="827" pageHeight="1169" math="0" shadow="0">
      <root>
        <mxCell id="0" />
        <mxCell id="1" parent="0" />
        <UserObject label="Inicio" id="YT1toZKHSXQAbr2CzxyF-1">
          <mxCell style="sketch=0;pointerEvents=1;shadow=0;dashed=0;html=1;strokeColor=none;fillColor=#000000;labelPosition=center;verticalLabelPosition=bottom;verticalAlign=top;outlineConnect=0;align=center;shape=mxgraph.office.concepts.home;" vertex="1" parent="1">
            <mxGeometry x="703" y="339" width="51" height="50" as="geometry" />
          </mxCell>
        </UserObject>
      </root>
    </mxGraphModel>
  </diagram>
  <diagram id="15uobyqJ6VLI6ihagU5o" name="Proceso Flujo">
    <mxGraphModel dx="910" dy="476" grid="1" gridSize="10" guides="1" tooltips="1" connect="1" arrows="1" fold="1" page="1" pageScale="1" pageWidth="827" pageHeight="1169" math="0" shadow="0">
      <root>
        <mxCell id="0" />
        <mxCell id="1" parent="0" />
        <UserObject label="Inicio" id="3HfHMBqHQL6DZ9SdbYFE-1">
          <mxCell style="sketch=0;pointerEvents=1;shadow=0;dashed=0;html=1;strokeColor=none;fillColor=#000000;labelPosition=center;verticalLabelPosition=bottom;verticalAlign=top;outlineConnect=0;align=center;shape=mxgraph.office.concepts.home;" vertex="1" parent="1">
            <mxGeometry x="703" y="339" width="51" height="50" as="geometry" />
          </mxCell>
        </UserObject>
      </root>
    </mxGraphModel>
  </diagram>
  <diagram id="qPdiFVU1kpRmRDOjAnlY" name="Proceso Presión">
    <mxGraphModel dx="910" dy="476" grid="1" gridSize="10" guides="1" tooltips="1" connect="1" arrows="1" fold="1" page="1" pageScale="1" pageWidth="827" pageHeight="1169" math="0" shadow="0">
      <root>
        <mxCell id="0" />
        <mxCell id="1" parent="0" />
        <UserObject label="Inicio" id="dzrOv9EIueF1N6BDGuDe-1">
          <mxCell style="sketch=0;pointerEvents=1;shadow=0;dashed=0;html=1;strokeColor=none;fillColor=#000000;labelPosition=center;verticalLabelPosition=bottom;verticalAlign=top;outlineConnect=0;align=center;shape=mxgraph.office.concepts.home;" vertex="1" parent="1">
            <mxGeometry x="703" y="339" width="51" height="50" as="geometry" />
          </mxCell>
        </UserObject>
      </root>
    </mxGraphModel>
  </diagram>
  <diagram id="F-VVrgNnXJm4xsoxWWtV" name="Proceso Dedos">
    <mxGraphModel dx="1138" dy="595" grid="1" gridSize="10" guides="1" tooltips="1" connect="1" arrows="1" fold="1" page="1" pageScale="1" pageWidth="827" pageHeight="1169" math="0" shadow="0">
      <root>
        <mxCell id="0" />
        <mxCell id="1" parent="0" />
        <UserObject label="Inicio" id="z1jJM5rvPjXZtPxmkXSJ-1">
          <mxCell style="sketch=0;pointerEvents=1;shadow=0;dashed=0;html=1;strokeColor=none;fillColor=#000000;labelPosition=center;verticalLabelPosition=bottom;verticalAlign=top;outlineConnect=0;align=center;shape=mxgraph.office.concepts.home;" vertex="1" parent="1">
            <mxGeometry x="703" y="339" width="51" height="50" as="geometry" />
          </mxCell>
        </UserObject>
      </root>
    </mxGraphModel>
  </diagram>
  <diagram id="yKdI5SsvLudctKzyRE9q" name="Proceso Microfono">
    <mxGraphModel dx="910" dy="476" grid="1" gridSize="10" guides="1" tooltips="1" connect="1" arrows="1" fold="1" page="1" pageScale="1" pageWidth="827" pageHeight="1169" math="0" shadow="0">
      <root>
        <mxCell id="0" />
        <mxCell id="1" parent="0" />
        <UserObject label="Inicio" id="D9Lm56my3wwB41d3Cj0u-1">
          <mxCell style="sketch=0;pointerEvents=1;shadow=0;dashed=0;html=1;strokeColor=none;fillColor=#000000;labelPosition=center;verticalLabelPosition=bottom;verticalAlign=top;outlineConnect=0;align=center;shape=mxgraph.office.concepts.home;" vertex="1" parent="1">
            <mxGeometry x="703" y="339" width="51" height="50" as="geometry" />
          </mxCell>
        </UserObject>
      </root>
    </mxGraphModel>
  </diagram>
  <diagram id="-M8rawbZomwGLGuV7Hj4" name="Proceso Memoria">
    <mxGraphModel dx="910" dy="476" grid="1" gridSize="10" guides="1" tooltips="1" connect="1" arrows="1" fold="1" page="1" pageScale="1" pageWidth="827" pageHeight="1169" math="0" shadow="0">
      <root>
        <mxCell id="0" />
        <mxCell id="1" parent="0" />
        <UserObject label="Inicio" id="Ev2sPLdXv6o7sMqhTM1z-1">
          <mxCell style="sketch=0;pointerEvents=1;shadow=0;dashed=0;html=1;strokeColor=none;fillColor=#000000;labelPosition=center;verticalLabelPosition=bottom;verticalAlign=top;outlineConnect=0;align=center;shape=mxgraph.office.concepts.home;" vertex="1" parent="1">
            <mxGeometry x="703" y="339" width="51" height="50" as="geometry" />
          </mxCell>
        </UserObject>
      </root>
    </mxGraphModel>
  </diagram>
</mxfile>
